<svg width="800" height="800" viewBox="0 0 800 800" fill="none" xmlns="http://www.w3.org/2000/svg">
<g clip-path="url(#clip0_8719_38)">
<path d="M716.666 66.6665H83.3325C76.7037 66.4337 70.0979 67.5678 63.9263 69.9981C57.7547 72.4285 52.1494 76.1031 47.4592 80.7932C42.7691 85.4834 39.0945 91.0887 36.6641 97.2603C34.2338 103.432 33.0997 110.038 33.3325 116.666V583.333C33.0997 589.962 34.2338 596.568 36.6641 602.739C39.0945 608.911 42.7691 614.516 47.4592 619.206C52.1494 623.897 57.7547 627.571 63.9263 630.001C70.0979 632.432 76.7037 633.566 83.3325 633.333H716.666C723.295 633.566 729.9 632.432 736.072 630.001C742.244 627.571 747.849 623.897 752.539 619.206C757.229 614.516 760.904 608.911 763.334 602.739C765.765 596.568 766.899 589.962 766.666 583.333V116.666C766.899 110.038 765.765 103.432 763.334 97.2603C760.904 91.0887 757.229 85.4834 752.539 80.7932C747.849 76.1031 742.244 72.4285 736.072 69.9981C729.9 67.5678 723.295 66.4337 716.666 66.6665ZM699.999 566.666H99.9992V381.666H143.333C149.724 381.561 155.951 379.619 161.27 376.073C166.589 372.527 170.776 367.526 173.333 361.667L181.666 346.666L229.999 448.333C232.629 454.011 236.882 458.783 242.221 462.046C247.56 465.309 253.747 466.917 259.999 466.666C266.172 466.529 272.199 464.76 277.468 461.54C282.737 458.32 287.06 453.764 289.999 448.333L369.999 278.333L409.999 361.667C412.853 367.302 417.115 372.105 422.371 375.609C427.627 379.113 433.699 381.199 439.999 381.666H499.999C508.84 381.666 517.318 378.155 523.569 371.903C529.821 365.652 533.333 357.174 533.333 348.333C533.333 339.493 529.821 331.014 523.569 324.763C517.318 318.512 508.84 315 499.999 315H461.666L399.999 185C397.27 179.364 393.008 174.611 387.702 171.286C382.396 167.96 376.261 166.196 369.999 166.196C363.737 166.196 357.602 167.96 352.296 171.286C346.99 174.611 342.729 179.364 339.999 185L259.999 355L211.666 253.333C208.727 247.903 204.404 243.346 199.135 240.126C193.866 236.906 187.839 235.138 181.666 235C175.413 234.75 169.227 236.358 163.888 239.621C158.548 242.884 154.296 247.655 151.666 253.333L121.666 315H99.9992V133.333H699.999V566.666Z" fill="black"/>
<path d="M466.666 466.666H399.999C391.159 466.666 382.68 470.178 376.429 476.429C370.178 482.68 366.666 491.159 366.666 499.999C366.666 508.84 370.178 517.318 376.429 523.57C382.68 529.821 391.159 533.333 399.999 533.333H466.666C475.507 533.333 483.985 529.821 490.236 523.57C496.487 517.318 499.999 508.84 499.999 499.999C499.999 491.159 496.487 482.68 490.236 476.429C483.985 470.178 475.507 466.666 466.666 466.666Z" fill="black"/>
<path d="M566.665 533.333H633.332C642.173 533.333 650.651 529.821 656.902 523.57C663.153 517.318 666.665 508.84 666.665 499.999C666.665 491.159 663.153 482.68 656.902 476.429C650.651 470.178 642.173 466.666 633.332 466.666H566.665C557.825 466.666 549.346 470.178 543.095 476.429C536.844 482.68 533.332 491.159 533.332 499.999C533.332 508.84 536.844 517.318 543.095 523.57C549.346 529.821 557.825 533.333 566.665 533.333Z" fill="black"/>
<path d="M616.667 666.666H183.333C174.493 666.666 166.014 670.178 159.763 676.429C153.512 682.68 150 691.159 150 699.999C150 708.84 153.512 717.318 159.763 723.57C166.014 729.821 174.493 733.333 183.333 733.333H616.667C625.507 733.333 633.986 729.821 640.237 723.57C646.488 717.318 650 708.84 650 699.999C650 691.159 646.488 682.68 640.237 676.429C633.986 670.178 625.507 666.666 616.667 666.666Z" fill="black"/>
</g>
<defs>
<clipPath id="clip0_8719_38">
<rect width="800" height="800" fill="white"/>
</clipPath>
</defs>
</svg>
