<svg width="800" height="800" viewBox="0 0 800 800" fill="none" xmlns="http://www.w3.org/2000/svg">
<g clip-path="url(#clip0_8719_48)">
<path d="M716.666 66.6665H83.3325C76.7037 66.4337 70.0979 67.5678 63.9263 69.9981C57.7547 72.4285 52.1494 76.1031 47.4592 80.7932C42.7691 85.4834 39.0945 91.0887 36.6641 97.2603C34.2338 103.432 33.0997 110.038 33.3325 116.666V315H121.666L151.666 253.333C154.296 247.655 158.548 242.884 163.888 239.621C169.227 236.358 175.413 234.75 181.666 235C187.839 235.138 193.866 236.906 199.135 240.126C204.404 243.346 208.727 247.903 211.666 253.333L259.999 355L339.999 185C342.729 179.364 346.99 174.611 352.296 171.286C357.602 167.96 363.737 166.196 369.999 166.196C376.261 166.196 382.396 167.96 387.702 171.286C393.008 174.611 397.27 179.364 399.999 185L461.666 315H499.999C508.84 315 517.318 318.512 523.569 324.763C529.821 331.014 533.333 339.493 533.333 348.333C533.333 357.174 529.821 365.652 523.569 371.903C517.318 378.155 508.84 381.666 499.999 381.666H439.999C433.699 381.199 427.627 379.113 422.371 375.609C417.115 372.105 412.853 367.302 409.999 361.667L369.999 278.333L289.999 448.333C287.06 453.764 282.737 458.32 277.468 461.54C272.199 464.76 266.172 466.529 259.999 466.666C253.747 466.917 247.56 465.309 242.221 462.046C236.882 458.783 232.629 454.011 229.999 448.333L181.666 346.666L173.333 361.667C170.776 367.526 166.589 372.527 161.27 376.073C155.951 379.619 149.724 381.561 143.333 381.666H33.3325V583.333C33.3325 596.594 38.6004 609.312 47.9772 618.688C57.354 628.065 70.0717 633.333 83.3325 633.333H716.666C729.927 633.333 742.644 628.065 752.021 618.688C761.398 609.312 766.666 596.594 766.666 583.333V116.666C766.899 110.038 765.765 103.432 763.334 97.2603C760.904 91.0887 757.229 85.4834 752.539 80.7932C747.849 76.1031 742.244 72.4285 736.072 69.9981C729.9 67.5678 723.295 66.4337 716.666 66.6665ZM489.999 523.333C483.845 529.614 475.458 533.208 466.666 533.333H399.999C391.159 533.333 382.68 529.821 376.429 523.57C370.178 517.319 366.666 508.84 366.666 500C366.403 495.601 367.17 491.201 368.906 487.151C370.642 483.1 373.299 479.51 376.666 476.666C382.82 470.386 391.207 466.792 399.999 466.666H466.666C475.506 466.666 483.985 470.178 490.236 476.43C496.487 482.681 499.999 491.159 499.999 500C500.262 504.399 499.495 508.799 497.759 512.849C496.023 516.9 493.366 520.489 489.999 523.333ZM656.666 523.333C650.511 529.614 642.125 533.208 633.332 533.333H566.666C557.825 533.333 549.347 529.821 543.096 523.57C536.844 517.319 533.333 508.84 533.333 500C533.07 495.601 533.837 491.201 535.573 487.151C537.309 483.1 539.966 479.51 543.332 476.666C549.487 470.386 557.873 466.792 566.666 466.666H633.332C642.173 466.666 650.652 470.178 656.903 476.43C663.154 482.681 666.666 491.159 666.666 500C666.928 504.399 666.161 508.799 664.425 512.849C662.689 516.9 660.032 520.489 656.666 523.333Z" fill="black"/>
<path d="M616.667 666.666H183.333C174.493 666.666 166.014 670.178 159.763 676.429C153.512 682.68 150 691.159 150 699.999C150 708.84 153.512 717.318 159.763 723.57C166.014 729.821 174.493 733.333 183.333 733.333H616.667C625.507 733.333 633.986 729.821 640.237 723.57C646.488 717.318 650 708.84 650 699.999C650 691.159 646.488 682.68 640.237 676.429C633.986 670.178 625.507 666.666 616.667 666.666Z" fill="black"/>
</g>
<defs>
<clipPath id="clip0_8719_48">
<rect width="800" height="800" fill="white"/>
</clipPath>
</defs>
</svg>
