<svg width="800" height="800" viewBox="0 0 800 800" fill="none" xmlns="http://www.w3.org/2000/svg">
<g clip-path="url(#clip0_8718_13)">
<path d="M720 520H760C782 520 800 538 800 560.4V679.6C800 702 782 720 760 720H600C578 720 560 702 560 679.6V560.4C560 538 578 520 600 520H640V440H440V520H480C502 520 520 538 520 560.4V679.6C520 702 502 720 480 720H320C298 720 280 702 280 679.6V560.4C280 538 298 520 320 520H360V440H160V520H200C222 520 240 538 240 560.4V679.6C240 702 222 720 200 720H40C18 720 0 702 0 679.6V560.4C0 538 18 520 40 520H80V440C80 396 116 360 160 360H360V280H320C298 280 280 262 280 239.6V120.4C280 98 298 80 320 80H480C502 80 520 98 520 120.4V239.6C520 262 502 280 480 280H440V360H640C684 360 720 396 720 440V520Z" fill="black"/>
</g>
<defs>
<clipPath id="clip0_8718_13">
<rect width="800" height="800" fill="white"/>
</clipPath>
</defs>
</svg>
