<svg width="800" height="800" viewBox="0 0 800 800" fill="none" xmlns="http://www.w3.org/2000/svg">
<g clip-path="url(#clip0_8719_17)">
<path d="M701.678 498.497V428.132C701.678 415.878 691.794 405.864 679.41 405.864H422.854V361.457H598.633C610.888 361.457 620.902 351.573 620.902 339.188V71.9579C620.902 59.7035 611.018 49.6893 598.633 49.6893H325.74L302.416 10.8188C298.464 4.09845 291.215 0.0136719 283.309 0.0136719H201.613C189.359 0.0136719 179.345 9.89744 179.345 22.2822V339.188C179.345 351.443 189.229 361.457 201.613 361.457H378.449V405.864H121.498C109.243 405.864 99.229 415.745 99.229 428.132V498.497C71.9523 507.852 52.3193 533.68 52.3193 563.855C52.3193 601.937 83.2853 633.033 121.63 633.033C159.712 633.033 190.941 602.067 190.941 563.855C190.941 533.417 171.308 507.59 144.031 498.497V450.268H378.712V498.497C351.435 507.852 331.802 533.68 331.802 563.855C331.802 601.937 362.768 633.033 401.113 633.033C439.195 633.033 470.424 602.067 470.424 563.855C470.424 533.417 450.791 507.59 423.514 498.497V450.268H656.878V498.497C629.601 507.852 609.968 533.68 609.968 563.855C609.968 601.937 640.934 633.033 679.279 633.033C717.361 633.033 748.59 602.067 748.59 563.855C748.588 533.415 728.955 507.59 701.678 498.497ZM146.402 563.855C146.402 577.428 135.201 588.629 121.628 588.629C108.055 588.629 96.8544 577.561 96.8544 563.855C96.7219 550.282 107.922 539.081 121.628 539.081C135.334 539.081 146.402 550.152 146.402 563.855ZM223.619 316.787V272.381H256.958C269.212 272.381 279.226 262.497 279.226 250.112C279.226 237.858 269.344 227.844 256.958 227.844H223.619V183.435H312.432C324.686 183.435 334.701 173.551 334.701 161.167C334.701 148.912 324.817 138.898 312.432 138.898H223.619V44.4183H270.529L293.983 83.2909C297.936 90.0112 305.184 94.096 313.091 94.096H576.497V316.787H223.619ZM425.489 563.855C425.489 577.559 414.421 588.629 400.715 588.629C387.01 588.629 375.942 577.561 375.942 563.855C375.942 550.282 387.142 539.081 400.715 539.081C414.421 539.081 425.489 550.152 425.489 563.855ZM678.486 588.627C664.783 588.627 653.713 577.559 653.713 563.853C653.713 550.28 664.913 539.079 678.486 539.079C692.19 539.079 703.26 550.147 703.26 563.853C703.392 577.559 692.192 588.627 678.486 588.627Z" fill="black"/>
<path d="M121.628 660.047C56.0062 660.047 2.50869 711.437 0.0036073 777.058C-0.128883 782.987 2.11122 789.049 6.19599 793.267C10.4133 797.614 16.0777 799.987 22.2721 799.987H220.848C226.778 799.987 232.707 797.484 236.925 793.267C241.142 788.919 243.382 782.99 243.117 777.058C240.616 711.437 187.249 660.047 121.628 660.047ZM48.76 755.711C59.3021 725.668 87.763 704.584 121.497 704.584C155.099 704.584 183.56 725.666 194.234 755.711H48.76Z" fill="black"/>
<path d="M400.717 660.047C335.096 660.047 281.599 711.437 279.093 777.058C278.961 782.987 281.201 789.049 285.286 793.267C289.503 797.614 295.17 799.987 301.362 799.987H499.938C505.868 799.987 511.797 797.484 516.014 793.267C520.232 788.919 522.472 782.99 522.207 777.058C519.704 711.437 466.339 660.047 400.717 660.047ZM327.98 755.711C338.522 725.668 366.983 704.584 400.717 704.584C434.319 704.584 462.78 725.666 473.454 755.711H327.98Z" fill="black"/>
<path d="M678.486 660.047C612.865 660.047 559.367 711.437 556.862 777.058C556.73 782.987 558.97 789.049 563.054 793.267C567.272 797.614 572.936 799.987 579.131 799.987H777.707C783.636 799.987 789.566 797.484 793.783 793.267C798 788.919 800.24 782.99 799.975 777.058C797.607 711.437 744.24 660.047 678.486 660.047ZM605.881 755.711C616.423 725.668 644.884 704.584 678.618 704.584C712.22 704.584 740.681 725.666 751.356 755.711H605.881Z" fill="black"/>
</g>
<defs>
<clipPath id="clip0_8719_17">
<rect width="800" height="800" fill="white"/>
</clipPath>
</defs>
</svg>
