<svg width="800" height="800" viewBox="0 0 800 800" fill="none" xmlns="http://www.w3.org/2000/svg">
<g clip-path="url(#clip0_8719_30)">
<path d="M746.131 480.454H636.458V407.758C636.458 397.673 628.283 389.498 618.199 389.498H418.257V319.542H515.034C525.118 319.542 533.293 311.368 533.293 301.283C533.293 291.199 525.118 283.024 515.034 283.024H477.601V246.505H527.93C550.521 246.505 568.901 228.127 568.901 205.535V40.9702C568.901 18.3781 550.521 0 527.93 0H272.067C249.477 0 231.097 18.3781 231.097 40.9702V205.535C231.099 228.126 249.477 246.504 272.067 246.504H322.397V283.022H284.964C274.88 283.022 266.705 291.197 266.705 301.282C266.705 311.366 274.88 319.541 284.964 319.541H381.74V389.498H181.799C171.715 389.498 163.54 397.673 163.54 407.758V480.454H53.8666C31.2761 480.454 12.8965 498.832 12.8965 521.425V685.99C12.8965 708.58 31.2745 726.96 53.8666 726.96H104.196V763.478H66.7635C56.6791 763.478 48.5042 771.653 48.5042 781.738C48.5042 791.822 56.6791 799.997 66.7635 799.997H296.834C306.919 799.997 315.094 791.822 315.094 781.738C315.094 771.653 306.919 763.478 296.834 763.478H259.402V726.96H309.731C332.322 726.96 350.701 708.582 350.701 685.99V521.428C350.701 498.837 332.323 480.457 309.731 480.457H200.058V426.02H599.943V480.457H490.27C467.679 480.457 449.299 498.836 449.299 521.428V685.993C449.299 708.583 467.678 726.963 490.27 726.963H540.599V763.481H503.166C493.082 763.481 484.907 771.656 484.907 781.741C484.907 791.825 493.082 800 503.166 800H733.237C743.322 800 751.497 791.825 751.497 781.741C751.497 771.656 743.322 763.481 733.237 763.481H695.805V726.963H746.134C768.725 726.963 787.104 708.585 787.104 685.993V521.428C787.103 498.832 768.723 480.454 746.131 480.454ZM222.882 763.478H140.715V726.96H222.883L222.882 763.478ZM309.728 516.976V516.975C312.183 516.975 314.18 518.97 314.18 521.426V619.23H216.035C205.95 619.23 197.775 627.405 197.775 637.49C197.775 647.574 205.95 655.749 216.035 655.749H314.18V685.993C314.18 688.447 312.184 690.444 309.728 690.444H53.8666C51.412 690.444 49.4151 688.449 49.4151 685.993V521.428C49.4151 518.973 51.4104 516.976 53.8666 516.976H309.728ZM272.067 209.987C269.613 209.987 267.616 207.99 267.616 205.534V40.9702C267.616 38.5155 269.611 36.5186 272.067 36.5186H527.929C530.384 36.5186 532.38 38.5139 532.38 40.9702V140.196H446.56C436.476 140.196 428.301 148.371 428.301 158.456C428.301 168.54 436.476 176.715 446.56 176.715H532.38V205.534C532.38 207.988 530.385 209.985 527.929 209.985L272.067 209.987ZM358.915 283.022V246.504H441.084V283.022H358.915ZM659.286 763.478H577.118V726.96H659.286V763.478ZM750.583 619.227H664.763C654.678 619.227 646.503 627.402 646.503 637.487C646.503 647.571 654.678 655.746 664.763 655.746H750.583V685.99C750.583 688.444 748.586 690.439 746.131 690.439H490.27C487.815 690.439 485.818 688.444 485.818 685.988V521.423C485.818 518.968 487.813 516.971 490.27 516.971H746.131C748.586 516.971 750.583 518.967 750.583 521.423V619.227Z" fill="black"/>
<path d="M374.131 140.195H363.783C353.698 140.195 345.523 148.37 345.523 158.455C345.523 168.539 353.698 176.714 363.783 176.714H374.131C384.215 176.714 392.39 168.539 392.39 158.455C392.392 148.37 384.217 140.195 374.131 140.195Z" fill="black"/>
<path d="M592.334 619.227H581.987C571.903 619.227 563.728 627.402 563.728 637.486C563.728 647.57 571.903 655.745 581.987 655.745H592.334C602.418 655.745 610.593 647.57 610.593 637.486C610.593 627.402 602.418 619.227 592.334 619.227Z" fill="black"/>
<path d="M133.257 655.745H143.606C153.69 655.745 161.865 647.57 161.865 637.486C161.865 627.402 153.69 619.227 143.606 619.227H133.257C123.173 619.227 114.998 627.402 114.998 637.486C114.998 647.57 123.175 655.745 133.257 655.745Z" fill="black"/>
</g>
<defs>
<clipPath id="clip0_8719_30">
<rect width="800" height="800" fill="white"/>
</clipPath>
</defs>
</svg>
