<svg width="800" height="800" viewBox="0 0 800 800" fill="none" xmlns="http://www.w3.org/2000/svg">
<path d="M100 347.223C100 240.635 100 187.342 112.584 169.413C125.168 151.484 175.277 134.331 275.497 100.026L294.591 93.49C346.833 75.6073 372.953 66.666 400 66.666C427.047 66.666 453.167 75.6073 505.41 93.49L524.503 100.026C624.723 134.331 674.833 151.484 687.417 169.413C700 187.342 700 240.635 700 347.223C700 363.319 700 380.779 700 399.713C700 587.646 558.7 678.849 470.047 717.576C446 728.079 433.977 733.333 400 733.333C366.023 733.333 354 728.079 329.952 717.576C241.299 678.849 100 587.646 100 399.713C100 380.779 100 363.319 100 347.223Z" stroke="black" stroke-width="50"/>
<path d="M316.667 413.334L364.287 466.667L483.334 333.334" stroke="black" stroke-width="50" stroke-linecap="round" stroke-linejoin="round"/>
</svg>
