<svg width="800" height="800" viewBox="0 0 800 800" fill="none" xmlns="http://www.w3.org/2000/svg">
<path d="M300 399.999L366.666 466.666L500 333.332M666.666 399.999C666.666 548.702 484.666 656.456 421.38 689.432C414.536 692.999 411.113 694.782 406.366 695.706C402.666 696.426 397.333 696.426 393.633 695.706C388.886 694.782 385.463 692.999 378.62 689.432C315.332 656.456 133.333 548.702 133.333 399.999V273.919C133.333 247.268 133.333 233.943 137.692 222.489C141.542 212.37 147.799 203.341 155.922 196.183C165.116 188.08 177.593 183.401 202.546 174.044L381.273 107.021C388.203 104.423 391.666 103.123 395.233 102.608C398.393 102.151 401.606 102.151 404.766 102.608C408.333 103.123 411.796 104.423 418.726 107.021L597.453 174.044C622.406 183.401 634.883 188.08 644.076 196.183C652.2 203.341 658.456 212.37 662.306 222.489C666.666 233.943 666.666 247.268 666.666 273.919V399.999Z" stroke="black" stroke-width="66.6667" stroke-linecap="round" stroke-linejoin="round"/>
</svg>
