<svg width="800" height="800" viewBox="0 0 800 800" fill="none" xmlns="http://www.w3.org/2000/svg">
<path fill-rule="evenodd" clip-rule="evenodd" d="M112.584 169.413C100 187.342 100 240.635 100 347.223V399.713C100 587.646 241.299 678.849 329.952 717.576C354 728.079 366.023 733.333 400 733.333C433.977 733.333 446 728.079 470.047 717.576C558.7 678.849 700 587.646 700 399.713V347.223C700 240.635 700 187.342 687.417 169.413C674.833 151.484 624.723 134.331 524.503 100.026L505.41 93.49C453.167 75.6073 427.047 66.666 400 66.666C372.953 66.666 346.833 75.6073 294.591 93.49L275.497 100.026C175.277 134.331 125.168 151.484 112.584 169.413ZM501.983 349.983C511.177 339.683 510.283 323.88 499.983 314.684C489.683 305.488 473.88 306.383 464.683 316.682L364.287 429.129L335.317 396.683C326.119 386.383 310.316 385.489 300.016 394.683C289.717 403.879 288.822 419.683 298.018 429.983L345.637 483.316C350.38 488.629 357.163 491.666 364.287 491.666C371.407 491.666 378.19 488.629 382.933 483.316L501.983 349.983Z" fill="#1C274C"/>
</svg>
