<svg xmlns="http://www.w3.org/2000/svg" style="display: none;">
	<defs>
		<symbol id="monitoring1" viewBox="0 0 800 800" fill="none">
			<g clip-path="url(#clip0_8719_38)">
				<path d="M716.666 66.6665H83.3325C76.7037 66.4337 70.0979 67.5678 63.9263 69.9981C57.7547 72.4285 52.1494 76.1031 47.4592 80.7932C42.7691 85.4834 39.0945 91.0887 36.6641 97.2603C34.2338 103.432 33.0997 110.038 33.3325 116.666V583.333C33.0997 589.962 34.2338 596.568 36.6641 602.739C39.0945 608.911 42.7691 614.516 47.4592 619.206C52.1494 623.897 57.7547 627.571 63.9263 630.001C70.0979 632.432 76.7037 633.566 83.3325 633.333H716.666C723.295 633.566 729.9 632.432 736.072 630.001C742.244 627.571 747.849 623.897 752.539 619.206C757.229 614.516 760.904 608.911 763.334 602.739C765.765 596.568 766.899 589.962 766.666 583.333V116.666C766.899 110.038 765.765 103.432 763.334 97.2603C760.904 91.0887 757.229 85.4834 752.539 80.7932C747.849 76.1031 742.244 72.4285 736.072 69.9981C729.9 67.5678 723.295 66.4337 716.666 66.6665ZM699.999 566.666H99.9992V381.666H143.333C149.724 381.561 155.951 379.619 161.27 376.073C166.589 372.527 170.776 367.526 173.333 361.667L181.666 346.666L229.999 448.333C232.629 454.011 236.882 458.783 242.221 462.046C247.56 465.309 253.747 466.917 259.999 466.666C266.172 466.529 272.199 464.76 277.468 461.54C282.737 458.32 287.06 453.764 289.999 448.333L369.999 278.333L409.999 361.667C412.853 367.302 417.115 372.105 422.371 375.609C427.627 379.113 433.699 381.199 439.999 381.666H499.999C508.84 381.666 517.318 378.155 523.569 371.903C529.821 365.652 533.333 357.174 533.333 348.333C533.333 339.493 529.821 331.014 523.569 324.763C517.318 318.512 508.84 315 499.999 315H461.666L399.999 185C397.27 179.364 393.008 174.611 387.702 171.286C382.396 167.96 376.261 166.196 369.999 166.196C363.737 166.196 357.602 167.96 352.296 171.286C346.99 174.611 342.729 179.364 339.999 185L259.999 355L211.666 253.333C208.727 247.903 204.404 243.346 199.135 240.126C193.866 236.906 187.839 235.138 181.666 235C175.413 234.75 169.227 236.358 163.888 239.621C158.548 242.884 154.296 247.655 151.666 253.333L121.666 315H99.9992V133.333H699.999V566.666Z" fill="currentColor"/>
				<path d="M466.666 466.666H399.999C391.159 466.666 382.68 470.178 376.429 476.429C370.178 482.68 366.666 491.159 366.666 499.999C366.666 508.84 370.178 517.318 376.429 523.57C382.68 529.821 391.159 533.333 399.999 533.333H466.666C475.507 533.333 483.985 529.821 490.236 523.57C496.487 517.318 499.999 508.84 499.999 499.999C499.999 491.159 496.487 482.68 490.236 476.429C483.985 470.178 475.507 466.666 466.666 466.666Z" fill="currentColor"/>
				<path d="M566.665 533.333H633.332C642.173 533.333 650.651 529.821 656.902 523.57C663.153 517.318 666.665 508.84 666.665 499.999C666.665 491.159 663.153 482.68 656.902 476.429C650.651 470.178 642.173 466.666 633.332 466.666H566.665C557.825 466.666 549.346 470.178 543.095 476.429C536.844 482.68 533.332 491.159 533.332 499.999C533.332 508.84 536.844 517.318 543.095 523.57C549.346 529.821 557.825 533.333 566.665 533.333Z" fill="currentColor"/>
				<path d="M616.667 666.666H183.333C174.493 666.666 166.014 670.178 159.763 676.429C153.512 682.68 150 691.159 150 699.999C150 708.84 153.512 717.318 159.763 723.57C166.014 729.821 174.493 733.333 183.333 733.333H616.667C625.507 733.333 633.986 729.821 640.237 723.57C646.488 717.318 650 708.84 650 699.999C650 691.159 646.488 682.68 640.237 676.429C633.986 670.178 625.507 666.666 616.667 666.666Z" fill="currentColor"/>
			</g>
			<defs>
				<clipPath id="clip0_8719_38">
					<rect width="800" height="800" fill="white"/>
				</clipPath>
			</defs>
		</symbol>

		<symbol id="monitoring2" viewBox="0 0 800 800" fill="none">
			<g clip-path="url(#clip0_8719_48)">
				<path d="M716.666 66.6665H83.3325C76.7037 66.4337 70.0979 67.5678 63.9263 69.9981C57.7547 72.4285 52.1494 76.1031 47.4592 80.7932C42.7691 85.4834 39.0945 91.0887 36.6641 97.2603C34.2338 103.432 33.0997 110.038 33.3325 116.666V315H121.666L151.666 253.333C154.296 247.655 158.548 242.884 163.888 239.621C169.227 236.358 175.413 234.75 181.666 235C187.839 235.138 193.866 236.906 199.135 240.126C204.404 243.346 208.727 247.903 211.666 253.333L259.999 355L339.999 185C342.729 179.364 346.99 174.611 352.296 171.286C357.602 167.96 363.737 166.196 369.999 166.196C376.261 166.196 382.396 167.96 387.702 171.286C393.008 174.611 397.27 179.364 399.999 185L461.666 315H499.999C508.84 315 517.318 318.512 523.569 324.763C529.821 331.014 533.333 339.493 533.333 348.333C533.333 357.174 529.821 365.652 523.569 371.903C517.318 378.155 508.84 381.666 499.999 381.666H439.999C433.699 381.199 427.627 379.113 422.371 375.609C417.115 372.105 412.853 367.302 409.999 361.667L369.999 278.333L289.999 448.333C287.06 453.764 282.737 458.32 277.468 461.54C272.199 464.76 266.172 466.529 259.999 466.666C253.747 466.917 247.56 465.309 242.221 462.046C236.882 458.783 232.629 454.011 229.999 448.333L181.666 346.666L173.333 361.667C170.776 367.526 166.589 372.527 161.27 376.073C155.951 379.619 149.724 381.561 143.333 381.666H33.3325V583.333C33.3325 596.594 38.6004 609.312 47.9772 618.688C57.354 628.065 70.0717 633.333 83.3325 633.333H716.666C729.927 633.333 742.644 628.065 752.021 618.688C761.398 609.312 766.666 596.594 766.666 583.333V116.666C766.899 110.038 765.765 103.432 763.334 97.2603C760.904 91.0887 757.229 85.4834 752.539 80.7932C747.849 76.1031 742.244 72.4285 736.072 69.9981C729.9 67.5678 723.295 66.4337 716.666 66.6665ZM489.999 523.333C483.845 529.614 475.458 533.208 466.666 533.333H399.999C391.159 533.333 382.68 529.821 376.429 523.57C370.178 517.319 366.666 508.84 366.666 500C366.403 495.601 367.17 491.201 368.906 487.151C370.642 483.1 373.299 479.51 376.666 476.666C382.82 470.386 391.207 466.792 399.999 466.666H466.666C475.506 466.666 483.985 470.178 490.236 476.43C496.487 482.681 499.999 491.159 499.999 500C500.262 504.399 499.495 508.799 497.759 512.849C496.023 516.9 493.366 520.489 489.999 523.333ZM656.666 523.333C650.511 529.614 642.125 533.208 633.332 533.333H566.666C557.825 533.333 549.347 529.821 543.096 523.57C536.844 517.319 533.333 508.84 533.333 500C533.07 495.601 533.837 491.201 535.573 487.151C537.309 483.1 539.966 479.51 543.332 476.666C549.487 470.386 557.873 466.792 566.666 466.666H633.332C642.173 466.666 650.652 470.178 656.903 476.43C663.154 482.681 666.666 491.159 666.666 500C666.928 504.399 666.161 508.799 664.425 512.849C662.689 516.9 660.032 520.489 656.666 523.333Z" fill="currentColor"/>
				<path d="M616.667 666.666H183.333C174.493 666.666 166.014 670.178 159.763 676.429C153.512 682.68 150 691.159 150 699.999C150 708.84 153.512 717.318 159.763 723.57C166.014 729.821 174.493 733.333 183.333 733.333H616.667C625.507 733.333 633.986 729.821 640.237 723.57C646.488 717.318 650 708.84 650 699.999C650 691.159 646.488 682.68 640.237 676.429C633.986 670.178 625.507 666.666 616.667 666.666Z" fill="currentColor"/>
			</g>
			<defs>
				<clipPath id="clip0_8719_48">
					<rect width="800" height="800" fill="white"/>
				</clipPath>
			</defs>
		</symbol>

		<symbol id="networking1" viewBox="0 0 800 800" fill="none">
			<g clip-path="url(#clip0_8719_30)">
				<path d="M746.131 480.454H636.458V407.758C636.458 397.673 628.283 389.498 618.199 389.498H418.257V319.542H515.034C525.118 319.542 533.293 311.368 533.293 301.283C533.293 291.199 525.118 283.024 515.034 283.024H477.601V246.505H527.93C550.521 246.505 568.901 228.127 568.901 205.535V40.9702C568.901 18.3781 550.521 0 527.93 0H272.067C249.477 0 231.097 18.3781 231.097 40.9702V205.535C231.099 228.126 249.477 246.504 272.067 246.504H322.397V283.022H284.964C274.88 283.022 266.705 291.197 266.705 301.282C266.705 311.366 274.88 319.541 284.964 319.541H381.74V389.498H181.799C171.715 389.498 163.54 397.673 163.54 407.758V480.454H53.8666C31.2761 480.454 12.8965 498.832 12.8965 521.425V685.99C12.8965 708.58 31.2745 726.96 53.8666 726.96H104.196V763.478H66.7635C56.6791 763.478 48.5042 771.653 48.5042 781.738C48.5042 791.822 56.6791 799.997 66.7635 799.997H296.834C306.919 799.997 315.094 791.822 315.094 781.738C315.094 771.653 306.919 763.478 296.834 763.478H259.402V726.96H309.731C332.322 726.96 350.701 708.582 350.701 685.99V521.428C350.701 498.837 332.323 480.457 309.731 480.457H200.058V426.02H599.943V480.457H490.27C467.679 480.457 449.299 498.836 449.299 521.428V685.993C449.299 708.583 467.678 726.963 490.27 726.963H540.599V763.481H503.166C493.082 763.481 484.907 771.656 484.907 781.741C484.907 791.825 493.082 800 503.166 800H733.237C743.322 800 751.497 791.825 751.497 781.741C751.497 771.656 743.322 763.481 733.237 763.481H695.805V726.963H746.134C768.725 726.963 787.104 708.585 787.104 685.993V521.428C787.103 498.832 768.723 480.454 746.131 480.454ZM222.882 763.478H140.715V726.96H222.883L222.882 763.478ZM309.728 516.976V516.975C312.183 516.975 314.18 518.97 314.18 521.426V619.23H216.035C205.95 619.23 197.775 627.405 197.775 637.49C197.775 647.574 205.95 655.749 216.035 655.749H314.18V685.993C314.18 688.447 312.184 690.444 309.728 690.444H53.8666C51.412 690.444 49.4151 688.449 49.4151 685.993V521.428C49.4151 518.973 51.4104 516.976 53.8666 516.976H309.728ZM272.067 209.987C269.613 209.987 267.616 207.99 267.616 205.534V40.9702C267.616 38.5155 269.611 36.5186 272.067 36.5186H527.929C530.384 36.5186 532.38 38.5139 532.38 40.9702V140.196H446.56C436.476 140.196 428.301 148.371 428.301 158.456C428.301 168.54 436.476 176.715 446.56 176.715H532.38V205.534C532.38 207.988 530.385 209.985 527.929 209.985L272.067 209.987ZM358.915 283.022V246.504H441.084V283.022H358.915ZM659.286 763.478H577.118V726.96H659.286V763.478ZM750.583 619.227H664.763C654.678 619.227 646.503 627.402 646.503 637.487C646.503 647.571 654.678 655.746 664.763 655.746H750.583V685.99C750.583 688.444 748.586 690.439 746.131 690.439H490.27C487.815 690.439 485.818 688.444 485.818 685.988V521.423C485.818 518.968 487.813 516.971 490.27 516.971H746.131C748.586 516.971 750.583 518.967 750.583 521.423V619.227Z" fill="currentColor"/>
				<path d="M374.131 140.195H363.783C353.698 140.195 345.523 148.37 345.523 158.455C345.523 168.539 353.698 176.714 363.783 176.714H374.131C384.215 176.714 392.39 168.539 392.39 158.455C392.392 148.37 384.217 140.195 374.131 140.195Z" fill="currentColor"/>
				<path d="M592.334 619.227H581.987C571.903 619.227 563.728 627.402 563.728 637.486C563.728 647.57 571.903 655.745 581.987 655.745H592.334C602.418 655.745 610.593 647.57 610.593 637.486C610.593 627.402 602.418 619.227 592.334 619.227Z" fill="currentColor"/>
				<path d="M133.257 655.745H143.606C153.69 655.745 161.865 647.57 161.865 637.486C161.865 627.402 153.69 619.227 143.606 619.227H133.257C123.173 619.227 114.998 627.402 114.998 637.486C114.998 647.57 123.175 655.745 133.257 655.745Z" fill="currentColor"/>
			</g>
			<defs>
				<clipPath id="clip0_8719_30">
					<rect width="800" height="800" fill="white"/>
				</clipPath>
			</defs>
		</symbol>

		<symbol id="networking2" viewBox="0 0 800 800" fill="none">
			<g clip-path="url(#clip0_8719_17)">
				<path d="M701.678 498.497V428.132C701.678 415.878 691.794 405.864 679.41 405.864H422.854V361.457H598.633C610.888 361.457 620.902 351.573 620.902 339.188V71.9579C620.902 59.7035 611.018 49.6893 598.633 49.6893H325.74L302.416 10.8188C298.464 4.09845 291.215 0.0136719 283.309 0.0136719H201.613C189.359 0.0136719 179.345 9.89744 179.345 22.2822V339.188C179.345 351.443 189.229 361.457 201.613 361.457H378.449V405.864H121.498C109.243 405.864 99.229 415.745 99.229 428.132V498.497C71.9523 507.852 52.3193 533.68 52.3193 563.855C52.3193 601.937 83.2853 633.033 121.63 633.033C159.712 633.033 190.941 602.067 190.941 563.855C190.941 533.417 171.308 507.59 144.031 498.497V450.268H378.712V498.497C351.435 507.852 331.802 533.68 331.802 563.855C331.802 601.937 362.768 633.033 401.113 633.033C439.195 633.033 470.424 602.067 470.424 563.855C470.424 533.417 450.791 507.59 423.514 498.497V450.268H656.878V498.497C629.601 507.852 609.968 533.68 609.968 563.855C609.968 601.937 640.934 633.033 679.279 633.033C717.361 633.033 748.59 602.067 748.59 563.855C748.588 533.415 728.955 507.59 701.678 498.497ZM146.402 563.855C146.402 577.428 135.201 588.629 121.628 588.629C108.055 588.629 96.8544 577.561 96.8544 563.855C96.7219 550.282 107.922 539.081 121.628 539.081C135.334 539.081 146.402 550.152 146.402 563.855ZM223.619 316.787V272.381H256.958C269.212 272.381 279.226 262.497 279.226 250.112C279.226 237.858 269.344 227.844 256.958 227.844H223.619V183.435H312.432C324.686 183.435 334.701 173.551 334.701 161.167C334.701 148.912 324.817 138.898 312.432 138.898H223.619V44.4183H270.529L293.983 83.2909C297.936 90.0112 305.184 94.096 313.091 94.096H576.497V316.787H223.619ZM425.489 563.855C425.489 577.559 414.421 588.629 400.715 588.629C387.01 588.629 375.942 577.561 375.942 563.855C375.942 550.282 387.142 539.081 400.715 539.081C414.421 539.081 425.489 550.152 425.489 563.855ZM678.486 588.627C664.783 588.627 653.713 577.559 653.713 563.853C653.713 550.28 664.913 539.079 678.486 539.079C692.19 539.079 703.26 550.147 703.26 563.853C703.392 577.559 692.192 588.627 678.486 588.627Z" fill="currentColor"/>
				<path d="M121.628 660.047C56.0062 660.047 2.50869 711.437 0.0036073 777.058C-0.128883 782.987 2.11122 789.049 6.19599 793.267C10.4133 797.614 16.0777 799.987 22.2721 799.987H220.848C226.778 799.987 232.707 797.484 236.925 793.267C241.142 788.919 243.382 782.99 243.117 777.058C240.616 711.437 187.249 660.047 121.628 660.047ZM48.76 755.711C59.3021 725.668 87.763 704.584 121.497 704.584C155.099 704.584 183.56 725.666 194.234 755.711H48.76Z" fill="currentColor"/>
				<path d="M400.717 660.047C335.096 660.047 281.599 711.437 279.093 777.058C278.961 782.987 281.201 789.049 285.286 793.267C289.503 797.614 295.17 799.987 301.362 799.987H499.938C505.868 799.987 511.797 797.484 516.014 793.267C520.232 788.919 522.472 782.99 522.207 777.058C519.704 711.437 466.339 660.047 400.717 660.047ZM327.98 755.711C338.522 725.668 366.983 704.584 400.717 704.584C434.319 704.584 462.78 725.666 473.454 755.711H327.98Z" fill="currentColor"/>
				<path d="M678.486 660.047C612.865 660.047 559.367 711.437 556.862 777.058C556.73 782.987 558.97 789.049 563.054 793.267C567.272 797.614 572.936 799.987 579.131 799.987H777.707C783.636 799.987 789.566 797.484 793.783 793.267C798 788.919 800.24 782.99 799.975 777.058C797.607 711.437 744.24 660.047 678.486 660.047ZM605.881 755.711C616.423 725.668 644.884 704.584 678.618 704.584C712.22 704.584 740.681 725.666 751.356 755.711H605.881Z" fill="currentColor"/>
			</g>
			<defs>
				<clipPath id="clip0_8719_17">
					<rect width="800" height="800" fill="white"/>
				</clipPath>
			</defs>
		</symbol>

		<symbol id="networking3" viewBox="0 0 800 800" fill="none">
			<g clip-path="url(#clip0_8718_13)">
				<path d="M720 520H760C782 520 800 538 800 560.4V679.6C800 702 782 720 760 720H600C578 720 560 702 560 679.6V560.4C560 538 578 520 600 520H640V440H440V520H480C502 520 520 538 520 560.4V679.6C520 702 502 720 480 720H320C298 720 280 702 280 679.6V560.4C280 538 298 520 320 520H360V440H160V520H200C222 520 240 538 240 560.4V679.6C240 702 222 720 200 720H40C18 720 0 702 0 679.6V560.4C0 538 18 520 40 520H80V440C80 396 116 360 160 360H360V280H320C298 280 280 262 280 239.6V120.4C280 98 298 80 320 80H480C502 80 520 98 520 120.4V239.6C520 262 502 280 480 280H440V360H640C684 360 720 396 720 440V520Z" fill="currentColor"/>
			</g>
			<defs>
				<clipPath id="clip0_8718_13">
					<rect width="800" height="800" fill="white"/>
				</clipPath>
			</defs>
		</symbol>

		<symbol id="shield1" viewBox="0 0 800 800" fill="none">
			<path d="M100 347.223C100 240.635 100 187.342 112.584 169.413C125.168 151.484 175.277 134.331 275.497 100.026L294.591 93.49C346.833 75.6073 372.953 66.666 400 66.666C427.047 66.666 453.167 75.6073 505.41 93.49L524.503 100.026C624.723 134.331 674.833 151.484 687.417 169.413C700 187.342 700 240.635 700 347.223C700 363.319 700 380.779 700 399.713C700 587.646 558.7 678.849 470.047 717.576C446 728.079 433.977 733.333 400 733.333C366.023 733.333 354 728.079 329.952 717.576C241.299 678.849 100 587.646 100 399.713C100 380.779 100 363.319 100 347.223Z" stroke="currentColor" stroke-width="50"/>
			<path d="M316.667 413.334L364.287 466.667L483.334 333.334" stroke="currentColor" stroke-width="50" stroke-linecap="round" stroke-linejoin="round"/>
		</symbol>

		<symbol id="shield2" viewBox="0 0 800 800" fill="none">
			<path d="M300 399.999L366.666 466.666L500 333.332M666.666 399.999C666.666 548.702 484.666 656.456 421.38 689.432C414.536 692.999 411.113 694.782 406.366 695.706C402.666 696.426 397.333 696.426 393.633 695.706C388.886 694.782 385.463 692.999 378.62 689.432C315.332 656.456 133.333 548.702 133.333 399.999V273.919C133.333 247.268 133.333 233.943 137.692 222.489C141.542 212.37 147.799 203.341 155.922 196.183C165.116 188.08 177.593 183.401 202.546 174.044L381.273 107.021C388.203 104.423 391.666 103.123 395.233 102.608C398.393 102.151 401.606 102.151 404.766 102.608C408.333 103.123 411.796 104.423 418.726 107.021L597.453 174.044C622.406 183.401 634.883 188.08 644.076 196.183C652.2 203.341 658.456 212.37 662.306 222.489C666.666 233.943 666.666 247.268 666.666 273.919V399.999Z" stroke="currentColor" stroke-width="66.6667" stroke-linecap="round" stroke-linejoin="round"/>
		</symbol>

		<symbol id="shield3" viewBox="0 0 800 800" fill="none">
			<path fill-rule="evenodd" clip-rule="evenodd" d="M112.584 169.413C100 187.342 100 240.635 100 347.223V399.713C100 587.646 241.299 678.849 329.952 717.576C354 728.079 366.023 733.333 400 733.333C433.977 733.333 446 728.079 470.047 717.576C558.7 678.849 700 587.646 700 399.713V347.223C700 240.635 700 187.342 687.417 169.413C674.833 151.484 624.723 134.331 524.503 100.026L505.41 93.49C453.167 75.6073 427.047 66.666 400 66.666C372.953 66.666 346.833 75.6073 294.591 93.49L275.497 100.026C175.277 134.331 125.168 151.484 112.584 169.413ZM501.983 349.983C511.177 339.683 510.283 323.88 499.983 314.684C489.683 305.488 473.88 306.383 464.683 316.682L364.287 429.129L335.317 396.683C326.119 386.383 310.316 385.489 300.016 394.683C289.717 403.879 288.822 419.683 298.018 429.983L345.637 483.316C350.38 488.629 357.163 491.666 364.287 491.666C371.407 491.666 378.19 488.629 382.933 483.316L501.983 349.983Z" fill="currentColor"/>
		</symbol>
	</defs>
</svg>