<svg xmlns="http://www.w3.org/2000/svg" viewBox="46 38 342 342">
  <defs>
    <style>
      .st0, .st1 {
        fill: none;
      }

      .st2 {
        fill: #f8dbbe;
      }

      .st3 {
        fill: #c65c0a;
      }

      .st4 {
        fill: url(#linear-gradient2);
      }

      .st5 {
        fill: url(#linear-gradient1);
      }

      .st6 {
        fill: url(#linear-gradient9);
      }

      .st7 {
        fill: url(#linear-gradient3);
      }

      .st8 {
        fill: url(#linear-gradient6);
      }

      .st9 {
        fill: url(#linear-gradient8);
      }

      .st10 {
        fill: url(#linear-gradient7);
      }

      .st11 {
        fill: url(#linear-gradient5);
      }

      .st12 {
        fill: url(#linear-gradient4);
      }

      .st13 {
        fill: #edd7af;
      }

      .st14 {
        fill: url(#linear-gradient13);
      }

      .st15 {
        fill: url(#linear-gradient12);
      }

      .st16 {
        fill: url(#linear-gradient15);
      }

      .st17 {
        fill: url(#linear-gradient11);
      }

      .st18 {
        fill: url(#linear-gradient10);
      }

      .st19 {
        fill: url(#linear-gradient14);
      }

      .st20 {
        fill: #6f6153;
      }

      .st21 {
        fill: #acff02;
      }

      .st22 {
        fill: url(#linear-gradient);
      }

      .st23 {
        fill: #9d846b;
      }

      .st24 {
        fill: #141316;
      }

      .st25 {
        fill: #f6e2bf;
      }

      .st26 {
        clip-path: url(#clippath-17);
      }

      .st27 {
        clip-path: url(#clippath-19);
      }

      .st28 {
        clip-path: url(#clippath-11);
      }

      .st29 {
        clip-path: url(#clippath-16);
      }

      .st30 {
        clip-path: url(#clippath-18);
      }

      .st31 {
        clip-path: url(#clippath-10);
      }

      .st32 {
        clip-path: url(#clippath-15);
      }

      .st33 {
        clip-path: url(#clippath-13);
      }

      .st34 {
        clip-path: url(#clippath-14);
      }

      .st35 {
        clip-path: url(#clippath-12);
      }

      .st36 {
        clip-path: url(#clippath-20);
      }

      .st37 {
        clip-path: url(#clippath-21);
      }

      .st38 {
        clip-path: url(#clippath-22);
      }

      .st39 {
        clip-path: url(#clippath-23);
      }

      .st40 {
        clip-path: url(#clippath-1);
      }

      .st41 {
        clip-path: url(#clippath-3);
      }

      .st42 {
        clip-path: url(#clippath-4);
      }

      .st43 {
        clip-path: url(#clippath-2);
      }

      .st44 {
        clip-path: url(#clippath-7);
      }

      .st45 {
        clip-path: url(#clippath-6);
      }

      .st46 {
        clip-path: url(#clippath-9);
      }

      .st47 {
        clip-path: url(#clippath-8);
      }

      .st48 {
        clip-path: url(#clippath-5);
      }

      .st49 {
        fill: #fff;
      }

      .st50 {
        fill: #333335;
      }

      .st51 {
        fill: #cb650a;
      }

      .st52 {
        fill: #95876d;
      }

      .st1 {
        clip-rule: evenodd;
      }

      .st53 {
        fill: #b3997e;
      }

      .st54 {
        fill: #bc6915;
      }

      .st55 {
        fill: #fefbb8;
      }

      .st56 {
        fill: #96836e;
      }

      .st57 {
        fill: #f3debd;
      }

      .st58 {
        fill: #171517;
      }

      .st59 {
        clip-path: url(#clippath);
      }

      .st60 {
        fill: #ada094;
      }

      .st61 {
        fill: #f3dcb3;
      }

      .st62 {
        fill: #161415;
      }
    </style>
    <clipPath id="clippath">
      <path class="st1" d="M353,194.6c1,9.1,1,17.3.5,24.1-1.6-.2-4.2-.4-7.2.4,0-.5,0-1.1,0-1.7.8-.3,1.4-1,1.4-1.9s-.5-1.6-1.3-1.8c0-4.6,0-9.5-.5-14.7-.6-6.3-1.5-12-2.5-17.1-.5.3-1,.6-1.5,1,1.1,4.6,2,9.8,2.6,15.5.6,5.5.7,10.6.6,15.3-.8.2-1.4,1-1.4,1.9s.5,1.6,1.3,1.8c0,.7,0,1.4-.1,2.1-3.6,1.2-6,3.3-7.1,4.5,0,2.1-.1,4.5-.6,7.2-.9,4.7-2.4,8.5-3.9,11.2,0,.9-.2,1.9-.2,2.8,2-3.3,4.3-8,5.4-14,.4-2.1.7-4.1.8-5.9,1.2-1.1,3.4-3,6.8-4.1,3.9-1.3,7.3-.9,9-.6.5-7.3.5-16.1-.9-25.9-.7-4.8-1.6-9.2-2.6-13.2.1-.3.3-.6.5-1,.3-.5.7-.8,1-1-1.2-1.2-2.4-2.4-3.6-3.6,1.4,5.4,2.7,11.7,3.5,18.7Z"/>
    </clipPath>
    <linearGradient id="linear-gradient" x1="333.1" y1="210.5" x2="355.2" y2="210.5" gradientUnits="userSpaceOnUse">
      <stop offset="0" stop-color="#cd7115"/>
      <stop offset=".5" stop-color="#cd7115"/>
      <stop offset=".8" stop-color="#c76303"/>
      <stop offset="1" stop-color="#fda70b"/>
    </linearGradient>
    <clipPath id="clippath-1">
      <path class="st1" d="M293,203.8s1.8,1.3,2.8,3.1c1,1.8,4.2,3.2,4.3,2,0-1.2-2-3.9-3.9-4.6-1.5-.5-2.7-.6-3.1-.6s-.1,0-.1,0"/>
    </clipPath>
    <linearGradient id="linear-gradient1" x1="293" y1="207" x2="300" y2="207" gradientUnits="userSpaceOnUse">
      <stop offset="0" stop-color="#6d6455"/>
      <stop offset="0" stop-color="#edd7af"/>
      <stop offset=".1" stop-color="#e3cea8"/>
      <stop offset=".4" stop-color="#cbb897"/>
      <stop offset=".7" stop-color="#a3947b"/>
      <stop offset="1" stop-color="#6d6455"/>
    </linearGradient>
    <clipPath id="clippath-2">
      <path class="st1" d="M81.3,165.4c-2.1-2.3-2.8-3.8-3.5-6.3-.7-2.5-4.1-2.2-6.5-7.2-2.4-4.9-.7-6.8-.9-8.4-.2-1.6-2.6-1.8-3.1-2.3-.5-.5,1.1-1.8,3.5-.5,2.4,1.3.8,2.4,1.2,6.1.3,3.7,1.1,4.9,3.7,7.1,2.6,2.2,4.9,2.2,6.1,3.6,1.2,1.4.3,4.6,2,8,.7,1.3,1.4,2.5,2.3,3.7-1.3-.9-3.4-2.4-4.8-3.9ZM91.2,171c-6.1-4.4-6.3-9.7-6.4-11.9,0-2.2-.3-2.6-1.9-3.4-1.6-.8-7.5-2.4-8.4-6.5-.9-4.1,0-5.4-.1-7.9-.2-2.4-2.3-2.2-2.6-3.3-.4-1.1,2.9-1.1,4.1.9,1.2,2,.2,5.6.4,7.8.1,2.2,1.7,4,4.8,5.5,3,1.5,5.4,1.6,6.1,2.9.6,1.2-.2,4,1.2,7.8,1.4,3.8,4,6.7,10.3,8.5,1.7.5,3.6.8,5.4,1,0,.3,0,.8.2,1.4,0,.4.1.9.2,1.3-2.1,0-8.2-.6-13.2-4.2ZM64.3,116.3s-.5,1-.9,2.1c-2.4,7.4-1.9,12.2-1.9,12.2.5,4,2.1,7.7,3.3,8.5,1.2.9.6,1.4.7,3.3.1,1.9,1.4,2.3,2,3.3.7,1,.2,3.2,1.5,6.4,1.3,3.3,3.5,4.8,5.2,6.1,1.7,1.4,1.1,1.7,2.2,4,1.2,2.3,4.3,5,6.9,6.9,1.6,1.2,3.7,2.1,5.1,2.7,1.2,1,2.7,2,4.6,3,4.8,2.5,10.8,2.9,12.3,3,.5.9,1.2,1.7,2.1,2.5,2.2,1.8,5.5,2,13.2,2.6,7.7.5,25.1-.6,25.1-.6l.4.6c.4.6,1.3.5,1.3.5l2.6-3.9s-.2-.1-1.4,0c-1.2,0-2.6,1.1-2.6,1.1,0,0-9.9.9-16.3.9s-17.2-.2-20.2-2.8c-2.1-1.9-2.8-4.4-2.9-5.6,2.7.2,5,.1,6,0,.5,1.2,1.7,2,3.1,2s3.4-1.5,3.4-3.4-1.5-3.4-3.4-3.4-2.9,1-3.3,2.4c-1.1,0-3.3,0-6.1-.2-3.8-.2-8.7-1.4-12-3.7-3.3-2.2-4.5-5.1-4.5-9.1s.2-5-2.5-5.7c-2.7-.8-4.1-.3-7.1-3-2.9-2.7-1.4-4.4-1.5-8.3,0-3.8-3.8-5-3.8-5,0,0-1-.7-4.5-6.7-3.5-6-5.3-14-5.3-14-.3.4-.6.9-1,1.5Z"/>
    </clipPath>
    <linearGradient id="linear-gradient2" x1="150.1" y1="149" x2="62" y2="149" gradientUnits="userSpaceOnUse">
      <stop offset="0" stop-color="#cd7115"/>
      <stop offset=".5" stop-color="#cd7115"/>
      <stop offset=".8" stop-color="#c76303"/>
      <stop offset="1" stop-color="#fda70b"/>
    </linearGradient>
    <clipPath id="clippath-3">
      <path class="st1" d="M80.7,179.5c.3.2.7.5,1,1,.3.4.4.7.5,1-1,4-1.9,8.4-2.6,13.2-1.4,9.8-1.4,18.6-.9,25.9,1.6-.3,5-.7,9,.6,3.4,1.1,5.6,3,6.8,4.1.1,1.8.3,3.8.8,5.9,1.2,5.9,3.4,10.6,5.4,14,0-.9-.2-1.9-.2-2.8-1.4-2.7-3-6.5-3.9-11.2-.5-2.7-.6-5.2-.6-7.2-1.1-1.1-3.5-3.2-7.1-4.5,0-.7,0-1.4-.1-2.1.7-.3,1.3-1,1.3-1.8s-.6-1.6-1.4-1.9c0-4.7,0-9.8.6-15.3.6-5.7,1.5-10.9,2.6-15.5-.5-.3-1-.6-1.5-1-1.1,5.1-2,10.8-2.5,17.1-.5,5.3-.6,10.2-.5,14.7-.7.3-1.3,1-1.3,1.8s.6,1.6,1.4,1.9c0,.6,0,1.1,0,1.7-3.1-.8-5.7-.6-7.2-.4-.5-6.8-.5-14.9.5-24.1.8-7,2.1-13.3,3.5-18.7-1.2,1.2-2.4,2.4-3.6,3.6Z"/>
    </clipPath>
    <linearGradient id="linear-gradient3" x1="100.7" y1="210.5" x2="78.6" y2="210.5" gradientUnits="userSpaceOnUse">
      <stop offset="0" stop-color="#cd7115"/>
      <stop offset=".5" stop-color="#cd7115"/>
      <stop offset=".8" stop-color="#c76303"/>
      <stop offset="1" stop-color="#fda70b"/>
    </linearGradient>
    <clipPath id="clippath-4">
      <path class="st1" d="M273.8,236.7h0c-1.2,0-2.2,1-2.2,2.3s.5,1.7,1.3,2.1l-.3,1.1v16.3s.2,1.7.9,1.1c.7-.5,0-.6,0-2.6,0-2,0-15.1,0-15.1l.2-.6c1.2,0,2.1-1,2.1-2.3s-.4-1.6-1.1-1.9l-.3-27.6-.7,27.3Z"/>
    </clipPath>
    <linearGradient id="linear-gradient4" x1="271.7" y1="234.8" x2="276" y2="234.8" gradientUnits="userSpaceOnUse">
      <stop offset="0" stop-color="#ec8408"/>
      <stop offset="0" stop-color="#ed8608"/>
      <stop offset=".6" stop-color="#f89e0a"/>
      <stop offset="1" stop-color="#fda70b"/>
    </linearGradient>
    <clipPath id="clippath-5">
      <path class="st1" d="M158.9,237c-.6.4-1.1,1.1-1.1,1.9,0,1.2.9,2.2,2.1,2.3l.2.6s0,13.1,0,15.1c-.1,2-.7,2,0,2.6.7.5.9-1.1.9-1.1v-16.3l-.3-1.1c.8-.3,1.3-1.1,1.3-2.1s-1-2.3-2.2-2.3h0l-.7-27.3-.3,27.6Z"/>
    </clipPath>
    <linearGradient id="linear-gradient5" x1="162.1" y1="234.8" x2="157.8" y2="234.8" gradientUnits="userSpaceOnUse">
      <stop offset="0" stop-color="#ec8408"/>
      <stop offset="0" stop-color="#ed8608"/>
      <stop offset=".6" stop-color="#f89e0a"/>
      <stop offset="1" stop-color="#fda70b"/>
    </linearGradient>
    <clipPath id="clippath-6">
      <path class="st1" d="M80.4,144.1c0,0,0,.2,0,.3,0,.4.3,1.3,1.3,2.4,2.5,2.6,5.1,1.3,7.8,3.9.5.4,1.3,1.3,1.7,2.5,0,0,0,.2,0,.3,0,.2,0,.3.1.5,0,.5.1,1.1,0,2-.1,2.8-1.3,2.8,5.9,7.3,7.2,4.5,20.1,10.2,31.3,11.7,11.3,1.5,19.6.9,19.6.9,0,0,3.2-4,3.9-7.5.7-3.4.8-5.5.8-5.5.9-.3,2.1-.8,3.4-1.6,1.2-.8,2.2-1.6,2.9-2.3-.2,0-7.9,2.9-25.2,1.1-5.5-.6-11-1.4-16.2-2.4h0s0,0,0,0c-11.2-2.2-20.9-5.2-26.9-8.9-5.9-3.6-8.5-5.4-9.6-5.4-.5,0-.7.3-.9.9Z"/>
    </clipPath>
    <linearGradient id="linear-gradient6" x1="159.2" y1="159.8" x2="80.3" y2="159.8" gradientUnits="userSpaceOnUse">
      <stop offset="0" stop-color="#3a362f"/>
      <stop offset="0" stop-color="#403b3b"/>
      <stop offset=".8" stop-color="#3b3731"/>
      <stop offset="1" stop-color="#3a362f"/>
    </linearGradient>
    <clipPath id="clippath-7">
      <path class="st1" d="M116.4,163.3c1.3,3.8,3,3.6,6.3,4.2,2.3.5,9.1,1.4,13.2,2,0,2.4,2,4.3,4.5,4.3s4.5-2,4.5-4.5-2-4.5-4.5-4.5-3.1.9-3.8,2.2c-1.4-.2-3.5-.4-6.6-.9-7.6-1-9.4-1.5-10.4-2.3-1-.8-2.8-6.1-2.8-6.1l-2-.4s.3,2.1,1.6,5.9Z"/>
    </clipPath>
    <linearGradient id="linear-gradient7" x1="142" y1="173.6" x2="117.2" y2="157.5" gradientUnits="userSpaceOnUse">
      <stop offset="0" stop-color="#ec8408"/>
      <stop offset="0" stop-color="#ed8608"/>
      <stop offset=".6" stop-color="#f89e0a"/>
      <stop offset="1" stop-color="#fda70b"/>
    </linearGradient>
    <clipPath id="clippath-8">
      <circle class="st0" cx="140.4" cy="169.5" r="2.2" transform="translate(-54.2 66.6) rotate(-22.5)"/>
    </clipPath>
    <clipPath id="clippath-9">
      <rect class="st0" x="138.2" y="167.2" width="4.5" height="4.5"/>
    </clipPath>
    <clipPath id="clippath-10">
      <path class="st1" d="M113.6,171.1c0,1,.8,1.8,1.8,1.8s1.8-.8,1.8-1.8-.8-1.8-1.8-1.8-1.8.8-1.8,1.8"/>
    </clipPath>
    <clipPath id="clippath-11">
      <rect class="st0" x="113.6" y="169.3" width="3.6" height="3.6"/>
    </clipPath>
    <clipPath id="clippath-12">
      <path class="st1" d="M80.3,144.4c0,.4.3,1.3,1.3,2.4,2.5,2.6,5.1,1.3,7.8,3.9.5.4,1.3,1.3,1.7,2.5.3-.8.4-1.9-.5-2.9-1.5-1.8-2.6-2.1-5-2.6-2.1-.4-4.2-1.7-5.3-3.5,0,0,0,.2,0,.3"/>
    </clipPath>
    <linearGradient id="linear-gradient8" x1="91.2" y1="148.6" x2="80.3" y2="148.6" gradientUnits="userSpaceOnUse">
      <stop offset="0" stop-color="#ec8408"/>
      <stop offset="0" stop-color="#ed8608"/>
      <stop offset=".6" stop-color="#f89e0a"/>
      <stop offset="1" stop-color="#fda70b"/>
    </linearGradient>
    <clipPath id="clippath-13">
      <path class="st1" d="M132.2,201.2c-3.6,3-4.7,4.2-4.7,4.2,0,0,3.1.8,5.3-1.8,2.1-2.6,4.8-4.5,4.8-4.5,0,0-.3-.1-.7-.1-.8,0-2.4.3-4.7,2.2Z"/>
    </clipPath>
    <linearGradient id="linear-gradient9" x1="136.2" y1="198.1" x2="129.5" y2="206.4" gradientUnits="userSpaceOnUse">
      <stop offset="0" stop-color="#6d6455"/>
      <stop offset="0" stop-color="#edd7af"/>
      <stop offset=".1" stop-color="#e3cea8"/>
      <stop offset=".4" stop-color="#cbb897"/>
      <stop offset=".7" stop-color="#a3947b"/>
      <stop offset="1" stop-color="#6d6455"/>
    </linearGradient>
    <clipPath id="clippath-14">
      <path class="st1" d="M137.6,204.4c-1.9.7-4,3.4-3.9,4.6,0,1.2,3.3-.2,4.3-2,1-1.8,2.8-3.1,2.8-3.1,0,0,0,0-.1,0-.4,0-1.5,0-3.1.6Z"/>
    </clipPath>
    <linearGradient id="linear-gradient10" x1="140.8" y1="207" x2="133.8" y2="207" gradientUnits="userSpaceOnUse">
      <stop offset="0" stop-color="#6d6455"/>
      <stop offset="0" stop-color="#edd7af"/>
      <stop offset=".1" stop-color="#e3cea8"/>
      <stop offset=".4" stop-color="#cbb897"/>
      <stop offset=".7" stop-color="#a3947b"/>
      <stop offset="1" stop-color="#6d6455"/>
    </linearGradient>
    <clipPath id="clippath-15">
      <path class="st1" d="M296.2,199.1s2.7,1.9,4.8,4.5c2.1,2.6,5.3,1.8,5.3,1.8,0,0-1.1-1.2-4.7-4.2-2.3-1.9-3.8-2.2-4.7-2.2s-.7.1-.7.1"/>
    </clipPath>
    <linearGradient id="linear-gradient11" x1="295.8" y1="199.7" x2="306.1" y2="205.2" gradientUnits="userSpaceOnUse">
      <stop offset="0" stop-color="#6d6455"/>
      <stop offset="0" stop-color="#edd7af"/>
      <stop offset=".1" stop-color="#e3cea8"/>
      <stop offset=".4" stop-color="#cbb897"/>
      <stop offset=".7" stop-color="#a3947b"/>
      <stop offset="1" stop-color="#6d6455"/>
    </linearGradient>
    <clipPath id="clippath-16">
      <path class="st1" d="M350,165.7c1.7-3.4.8-6.7,2-8,1.2-1.4,3.6-1.4,6.2-3.6,2.6-2.2,3.3-3.4,3.7-7.1.3-3.7-1.2-4.8,1.2-6.1,2.4-1.3,4,0,3.5.5-.5.5-3,.7-3.1,2.3-.2,1.6,1.5,3.4-.9,8.4-2.4,4.9-5.8,4.6-6.5,7.2-.7,2.5-1.4,3.9-3.5,6.3-1.3,1.5-3.5,3-4.8,3.9.9-1.2,1.6-2.4,2.3-3.7ZM329.7,173.9c0-.6.1-1,.2-1.4,1.8-.2,3.7-.5,5.4-1,6.3-1.8,8.9-4.7,10.3-8.5,1.4-3.8.6-6.6,1.2-7.8.6-1.2,3-1.4,6.1-2.9,3-1.5,4.6-3.3,4.8-5.5.1-2.2-.8-5.7.4-7.8,1.2-2,4.4-2,4.1-.9-.4,1.1-2.4.9-2.6,3.3-.2,2.4.8,3.8-.1,7.9-.9,4.1-6.7,5.7-8.4,6.5-1.6.8-1.8,1.1-1.9,3.4,0,2.2-.3,7.5-6.4,11.9-5,3.6-11.1,4.1-13.2,4.2.1-.4.2-.9.2-1.3ZM363.3,128.7c-3.5,6-4.5,6.7-4.5,6.7,0,0-3.7,1.1-3.8,5,0,3.8,1.4,5.6-1.5,8.3-2.9,2.7-4.4,2.2-7.1,3-2.7.8-2.5,1.8-2.5,5.7s-1.2,6.8-4.5,9.1c-3.3,2.2-8.2,3.4-12,3.7-2.7.2-5,.2-6.1.2-.4-1.4-1.7-2.4-3.3-2.4s-3.4,1.5-3.4,3.4,1.5,3.4,3.4,3.4,2.6-.8,3.1-2c1,0,3.3,0,6,0-.2,1.3-.8,3.8-2.9,5.6-3,2.7-13.9,2.8-20.2,2.8s-16.3-.9-16.3-.9c0,0-1.4-1.1-2.6-1.1-1.2,0-1.4,0-1.4,0l2.6,3.9s.9.1,1.3-.5l.4-.6s17.4,1.1,25.1.6c7.7-.5,11-.8,13.2-2.6.9-.8,1.6-1.6,2.1-2.5,1.5,0,7.5-.4,12.3-3,1.9-1,3.4-2,4.6-3,1.4-.6,3.5-1.5,5.1-2.7,2.6-1.9,5.7-4.6,6.9-6.9,1.2-2.3.5-2.6,2.2-4,1.7-1.4,3.9-2.9,5.2-6.1,1.3-3.3.8-5.4,1.5-6.4.7-1,1.9-1.5,2-3.3.1-1.9-.5-2.4.7-3.3,1.1-.8,2.8-4.5,3.3-8.5,0,0,.6-4.7-1.9-12.2-.4-1.1-.9-2.1-.9-2.1-.3-.7-.7-1.2-1-1.5,0,0-1.8,8-5.3,14Z"/>
    </clipPath>
    <linearGradient id="linear-gradient12" x1="283.7" y1="149" x2="371.8" y2="149" gradientUnits="userSpaceOnUse">
      <stop offset="0" stop-color="#cd7115"/>
      <stop offset=".5" stop-color="#cd7115"/>
      <stop offset=".8" stop-color="#c76303"/>
      <stop offset="1" stop-color="#fda70b"/>
    </linearGradient>
    <clipPath id="clippath-17">
      <path class="st1" d="M342.9,148.6c-5.9,3.7-15.7,6.7-26.9,8.9h0c-5.2,1-10.6,1.8-16.2,2.4-17.3,1.8-25.1-1-25.2-1.1.7.7,1.6,1.6,2.9,2.3,1.3.8,2.4,1.3,3.4,1.6,0,0,0,2,.8,5.5.7,3.4,3.9,7.5,3.9,7.5,0,0,8.3.6,19.6-.9,11.3-1.5,24.1-7.2,31.3-11.7,7.2-4.5,6.1-4.5,5.9-7.3,0-.9,0-1.5,0-2,0-.2,0-.3.1-.5,0,0,0-.2,0-.3.4-1.3,1.3-2.1,1.7-2.5,2.7-2.6,5.3-1.3,7.8-3.9,1-1.1,1.2-2,1.3-2.4,0-.1,0-.2,0-.3-.2-.6-.4-.9-.9-.9-1.2,0-3.7,1.8-9.6,5.4Z"/>
    </clipPath>
    <linearGradient id="linear-gradient13" x1="274.6" y1="159.8" x2="353.5" y2="159.8" gradientUnits="userSpaceOnUse">
      <stop offset="0" stop-color="#3a362f"/>
      <stop offset="0" stop-color="#403b3b"/>
      <stop offset=".8" stop-color="#3b3731"/>
      <stop offset="1" stop-color="#3a362f"/>
    </linearGradient>
    <clipPath id="clippath-18">
      <path class="st1" d="M317.1,157.8s-1.8,5.3-2.8,6.1c-1,.8-2.7,1.3-10.4,2.3-3.1.4-5.2.7-6.6.9-.8-1.3-2.2-2.2-3.8-2.2-2.5,0-4.5,2-4.5,4.5s2,4.5,4.5,4.5,4.4-1.9,4.5-4.3c4.1-.5,11-1.5,13.2-2,3.3-.7,5-.4,6.3-4.2,1.3-3.8,1.6-5.9,1.6-5.9l-2,.4Z"/>
    </clipPath>
    <linearGradient id="linear-gradient14" x1="288.8" y1="168.6" x2="320.1" y2="162.5" gradientUnits="userSpaceOnUse">
      <stop offset="0" stop-color="#ec8408"/>
      <stop offset="0" stop-color="#ed8608"/>
      <stop offset=".6" stop-color="#f89e0a"/>
      <stop offset="1" stop-color="#fda70b"/>
    </linearGradient>
    <clipPath id="clippath-19">
      <path class="st1" d="M291.1,169.5c0,1.2,1,2.2,2.2,2.2s2.2-1,2.2-2.2-1-2.2-2.2-2.2-2.2,1-2.2,2.2Z"/>
    </clipPath>
    <clipPath id="clippath-20">
      <rect class="st0" x="291.1" y="167.2" width="4.5" height="4.5"/>
    </clipPath>
    <clipPath id="clippath-21">
      <path class="st1" d="M316.6,171.1c0,1,.8,1.8,1.8,1.8s1.8-.8,1.8-1.8-.8-1.8-1.8-1.8-1.8.8-1.8,1.8Z"/>
    </clipPath>
    <clipPath id="clippath-22">
      <rect class="st0" x="316.6" y="169.3" width="3.6" height="3.6"/>
    </clipPath>
    <clipPath id="clippath-23">
      <path class="st1" d="M348.1,147.6c-2.4.5-3.6.8-5,2.6-.8,1-.7,2.2-.5,2.9.4-1.3,1.3-2.1,1.7-2.5,2.7-2.6,5.3-1.3,7.8-3.9,1-1.1,1.2-2,1.3-2.4,0-.1,0-.2,0-.3-1,1.9-3.1,3.1-5.3,3.5Z"/>
    </clipPath>
    <linearGradient id="linear-gradient15" x1="342.6" y1="148.6" x2="353.5" y2="148.6" gradientUnits="userSpaceOnUse">
      <stop offset="0" stop-color="#ec8408"/>
      <stop offset="0" stop-color="#ed8608"/>
      <stop offset=".6" stop-color="#f89e0a"/>
      <stop offset="1" stop-color="#fda70b"/>
    </linearGradient>
  </defs>
  <path class="st61" d="M216.9,379.7c-23,0-45.4-4.5-66.4-13.4-20.3-8.6-38.6-20.9-54.3-36.6-15.7-15.7-28-33.9-36.6-54.3-8.9-21.1-13.4-43.4-13.4-66.4s4.5-45.4,13.4-66.4c8.6-20.3,20.9-38.6,36.6-54.3,15.7-15.7,33.9-28,54.3-36.6,21.1-8.9,43.4-13.4,66.4-13.4s45.4,4.5,66.4,13.4c20.3,8.6,38.6,20.9,54.3,36.6,15.7,15.7,28,33.9,36.6,54.3,8.9,21.1,13.4,43.4,13.4,66.4s-4.5,45.4-13.4,66.4c-8.6,20.3-20.9,38.6-36.6,54.3-15.7,15.7-33.9,28-54.3,36.6-21.1,8.9-43.4,13.4-66.4,13.4"/>
  <path class="st58" d="M216.9,375.4c-22.5,0-44.3-4.4-64.8-13.1-19.8-8.4-37.6-20.4-52.9-35.7-15.3-15.3-27.3-33.1-35.7-52.9-8.7-20.5-13.1-42.3-13.1-64.8s4.4-44.3,13.1-64.8c8.4-19.8,20.4-37.6,35.7-52.9,15.3-15.3,33.1-27.3,52.9-35.7,20.5-8.7,42.3-13.1,64.8-13.1s44.3,4.4,64.8,13.1c19.8,8.4,37.6,20.4,52.9,35.7,15.3,15.3,27.3,33.1,35.7,52.9,8.7,20.5,13.1,42.3,13.1,64.8s-4.4,44.3-13.1,64.8c-8.4,19.8-20.4,37.6-35.7,52.9-15.3,15.3-33.1,27.3-52.9,35.7-20.5,8.7-42.3,13.1-64.8,13.1"/>
  <path class="st51" d="M216.9,371.4c-21.9,0-43.2-4.3-63.2-12.8-19.3-8.2-36.7-19.9-51.6-34.8-14.9-14.9-26.6-32.3-34.8-51.6-8.5-20-12.8-41.3-12.8-63.2s4.3-43.2,12.8-63.2c8.2-19.3,19.9-36.7,34.8-51.6,14.9-14.9,32.3-26.6,51.6-34.8,20-8.5,41.3-12.8,63.2-12.8s43.2,4.3,63.2,12.8c19.3,8.2,36.7,19.9,51.6,34.8,14.9,14.9,26.6,32.3,34.8,51.6,8.5,20,12.8,41.3,12.8,63.2s-4.3,43.2-12.8,63.2c-8.2,19.3-19.9,36.7-34.8,51.6-14.9,14.9-32.3,26.6-51.6,34.8-20,8.5-41.3,12.8-63.2,12.8"/>
  <path class="st58" d="M375.9,209c0,87.8-71.2,159-159,159S57.9,296.8,57.9,209,129.1,50,216.9,50s159,71.2,159,159"/>
  <path class="st3" d="M216.9,321.1c-15.1,0-29.8-3-43.6-8.8-13.3-5.6-25.3-13.7-35.6-24-10.3-10.3-18.4-22.3-24-35.6-5.8-13.8-8.8-28.5-8.8-43.6s3-29.8,8.8-43.6c5.6-13.3,13.7-25.3,24-35.6,10.3-10.3,22.3-18.4,35.6-24,13.8-5.8,28.5-8.8,43.6-8.8s29.8,3,43.6,8.8c13.3,5.6,25.3,13.7,35.6,24,10.3,10.3,18.4,22.3,24,35.6,5.8,13.8,8.8,28.5,8.8,43.6s-3,29.8-8.8,43.6c-5.6,13.3-13.7,25.3-24,35.6-10.3,10.3-22.3,18.4-35.6,24-13.8,5.8-28.5,8.8-43.6,8.8"/>
  <path class="st24" d="M325.9,209c0,13.6-2.5,26.7-7.1,38.7-.5,1.3-1,2.6-1.5,3.8-.6,1.5-1.3,2.9-2,4.4-.7,1.4-1.4,2.8-2.1,4.2-1,1.9-2.1,3.8-3.2,5.6-19.1,31.3-53.6,52.2-93,52.2s-73.9-20.9-93-52.2c-1.1-1.8-2.2-3.7-3.2-5.6-.7-1.4-1.4-2.8-2.1-4.2-.7-1.4-1.3-2.9-2-4.4-.5-1.3-1.1-2.5-1.5-3.8-4.6-12-7.1-25.1-7.1-38.7s.7-14.6,2.1-21.6c2.4-11.9,6.7-23,12.6-33.2,18.9-32.4,54-54.2,94.2-54.2s75.3,21.8,94.2,54.2c5.9,10.1,10.2,21.3,12.6,33.2,1.4,7,2.1,14.2,2.1,21.6"/>
  <path class="st61" d="M216.9,313.6c-14.1,0-27.8-2.8-40.7-8.2-12.5-5.3-23.7-12.8-33.3-22.4-9.6-9.6-17.2-20.8-22.4-33.3-5.5-12.9-8.2-26.6-8.2-40.7s2.8-27.8,8.2-40.7c5.3-12.5,12.8-23.7,22.4-33.3,9.6-9.6,20.8-17.2,33.3-22.4,12.9-5.5,26.6-8.2,40.7-8.2s27.8,2.8,40.7,8.2c12.5,5.3,23.7,12.8,33.3,22.4,9.6,9.6,17.2,20.8,22.4,33.3,5.5,12.9,8.2,26.6,8.2,40.7s-2.8,27.8-8.2,40.7c-5.3,12.5-12.8,23.7-22.4,33.3-9.6,9.6-20.8,17.2-33.3,22.4-12.9,5.5-26.6,8.2-40.7,8.2"/>
  <path class="st24" d="M375.4,133.8c-1.5,22.9-21.8,44.4-51.7,53.7-2.3.7-4.7,1.4-7.2,1.9l6.6,6.8-5.2,2,.4,2.2c.4,2.2-.4,3.4-3.4,5-3.1,1.6-3.9,5.5-8,6.5-4.1,1-4.8,3.7-8.8,6.1-3.9,2.4-8,.9-8.2.8,0,0,.1.2,1,1.3,1,1.4,3.1,2.5,3.1,2.5,0,0-1.5.3-4.6-.4-3.1-.8-5.4-3.5-5.4-3.5v1.1c-.1,1.1,0,3.1,0,3.1l-.8-1c-.8-1-1.4-3.3-1.4-3.3,0,0-1,1.1,1.2,9.9,2.1,8.5,7.7,11.7,8.1,11.9-.2,0-1.8-.7-4.2-2.3-2.6-1.7-4.4-5.5-4.4-5.5,0,0,0,.9,2.6,6.9,2.6,6,8.1,10.5,8.1,10.5l-1.5-.6c-1.5-.6-4.1-3.8-4.1-3.8,0,0,.3.8,1.5,3.2,1.2,2.3,5,6.7,5.2,6.8,0,0-2.4-1-7.5-4.7-5.2-3.7-6.6-9.3-6.6-9.3,0,0,1,5.2,3.2,9.2.7,1.4,2.8,3.6,6.9,7.9,4.3,4.6,4.8,4.9,5.7,6.4,2,3.4,2.3,7,2.2,9.6.8-2.5,1.8-7.3.5-13-.6-2.8-1.6-5.1-2.6-6.7.7.1,1.9.4,3.1,1.2,1.5.9,2.3,2.1,2.7,2.7-.4-1-.8-2.1-1.5-3.3-1.2-2.2-2.6-3.9-3.7-5,1.8.7,5.6,2.4,8.8,6.4,2.6,3.1,3.7,6.4,4.2,8.7-19.1,31.3-53.6,52.2-93,52.2s-73.9-20.9-93-52.2c.5-2.4,1.7-5.6,4.2-8.7,3.2-3.9,7-5.7,8.8-6.4-1.2,1.2-2.5,2.9-3.7,5-.6,1.2-1.1,2.3-1.5,3.3.4-.6,1.2-1.8,2.7-2.7,1.2-.8,2.4-1.1,3.1-1.2-.9,1.7-1.9,3.9-2.6,6.7-1.3,5.7-.2,10.5.5,13,0-2.6.2-6.1,2.2-9.6.9-1.5,1.4-1.9,5.7-6.4,4.1-4.3,6.1-6.5,6.9-7.9,2.2-4,3.2-9.2,3.2-9.2,0,0-1.5,5.6-6.6,9.3-5.1,3.6-7.4,4.6-7.5,4.7.1-.1,4-4.5,5.2-6.8,1.2-2.3,1.5-3.2,1.5-3.2,0,0-2.6,3.1-4.1,3.8l-1.5.6s5.6-4.5,8.1-10.5c2.6-6,2.6-6.9,2.6-6.9,0,0-1.9,3.8-4.4,5.5-2.4,1.6-4,2.3-4.2,2.3.4-.2,5.9-3.3,8.1-11.9,2.2-8.8,1.2-9.9,1.2-9.9,0,0-.6,2.3-1.4,3.3l-.8,1s.2-2,.1-3.1v-1.1c0,0-2.4,2.7-5.5,3.5-3.1.8-4.6.4-4.6.4,0,0,2.2-1.1,3.1-2.5.9-1.2,1-1.3,1-1.3-.1,0-4.2,1.6-8.2-.8-4-2.5-4.8-5.1-8.8-6.1-4.1-1-5-4.9-8-6.5-3.1-1.6-3.8-2.8-3.4-5l.4-2.2-5.2-2,6.6-6.8c-2.4-.6-4.8-1.2-7.2-1.9-29.9-9.3-50.2-30.7-51.7-53.7-.3-5.3,0-15.6,7.4-28.1.7,7.9,3,14,5.5,18.6,8.9,16.3,27.8,26.6,51.5,30,10.5,1.5,22,1.6,34,.3-3.2-1-6.4-1.9-9.6-2.9.3,0,6,1.1,10.8,0,2.3-.5,5.3-.9,8.2-1.1,2.9-1.2,6.5-2.7,8.6-4.1,4.3-2.6,14.7-4.5,20.7-3.2,1.2.2,2.3.3,3.4.3,1.2,0,2.3-.1,3.3-.3h0c2.6-.5,4.5-1.5,5.4-1.6,1.6-.2,7.2,0,9.6-.4,2.3-.5,5.8-2.7,5.8-2.7,0,0-.6,1.7-2,2.7-.7.5-1.8,1.1-2.8,1.6.9,0,2.5,0,5.2.1,6.8-.8,16.6-1.6,21.2-.7,7.5,1.5,12.8,4.2,18.2,4.2h5.5s-7.5,1.6-12,1c-2.2-.3-4.2-.2-5.6,0,1.5.6,6.2,2.5,9.2,2.6,3.5.1,11.5.4,16.5,1.6,4.8,1.1,10.5,0,10.8,0-3.2,1-6.4,1.9-9.6,2.9,11.9,1.4,23.4,1.2,34-.3,23.7-3.4,42.6-13.7,51.5-30,2.5-4.5,4.7-10.6,5.5-18.6,7.4,12.5,7.7,22.8,7.4,28.1"/>
  <path class="st25" d="M279.3,185.7c2.2,3.1,2.5,11.3,2.5,11.3,0,0,1.5-3.9-.8-10.7-2.3-6.9-8.7-12.1-12.8-15.3-4-3.2-6.9-7.1-7.1-7.4.1.1,1.9,1.7,4,2.9,2.2,1.2,3.7,1.4,3.7,1.4,0,0-1.4-.8-2.4-1.8-1-.9-2.6-2.9-6.8-7.9-1.5-1.8-4-4-8.3-5.6,1.2,1,2.4,2.2,3.7,3.7,1.1,1.3,2.1,2.6,2.8,3.7-.6-.7-1.5-1.5-2.6-2.2-.6-.4-1.2-.7-1.8-.9.2.5.5,1.2.7,1.9.4,1.2.6,2.4.6,3.3-.9-2-3.7-7.7-10.3-11-3.7-1.9-7.1-2.3-9.2-2.4,1.9.6,5.2,2.1,8.3,5.2,2.5,2.5,3.8,5,4.6,6.7-3.8-3.7-4.4-4-4.4-4-1.9-1.1-5.1-2.1-5.3-2.2h0s2.7,2.3,4.2,3.9c1.3,1.3,2.9,3.3,4.3,6.3-3.2-3.3-4.6-4.5-5.4-5,0,0-1.2-.9-1.5-1,0,.2.3,1,.5,1.9,0,.4.1,1,0,1.7-.8-1.3-2.2-3.1-4.4-4.7-1.3-.9-2.5-1.6-3.6-2,.5,1,1,2.4,1.3,4.1.4,2.5.2,4.7-.1,6-.3-1.6-1-4.2-2.9-6.8-.8-1.1-1.7-2-2.5-2.7-.9.2-2.6.7-4.2,2.1-2.9,2.6-3.2,6.2-3.2,6.9-.2-.7-1.2-5,1.5-9.2,2.7-4.3,7.2-5.1,7.9-5.3-2.3-.1-7.8-.2-13.7,3.1-7.3,4.2-10,10.9-10.7,12.8,0-2.1.2-5.7,1.9-9.7,1.6-3.9,3.9-6.6,5.3-8.1-2.4.3-6.8,1.2-11.2,4.2-3.3,2.2-5.5,4.8-6.8,6.6.4-1.6,1-3.7,2.4-6,1.1-1.8,2.2-3.1,3.2-4.1-3.1-.6-15.7-2.7-27.8,5-7.1,4.5-10.8,10.5-12.6,13.7,1.5-1.7,3.3-3.5,5.6-5.4,2-1.6,3.9-2.9,5.6-3.9,0,0-3,3.1-2.5,3.6,0,0,.2,0,.4,0,2-.3,9.6-5.5,13.4-7.3,1.3-.6,3.2-1.4,5.7-1.8,0,0-7.9,4.3-12.1,9.4-4.2,5.2-8.8,6.2-17.8,12.7-4.1,2.9-7.8,9.9-9.5,21,.7-2.3,1.9-5,3.8-7.9,3.7-5.7,8.3-9.1,11.2-10.8-1.7,1.5-5,5-6.7,10.5-1.2,3.9-1,7.3-.8,9.3,1.5-5.8,3.6-10,5.4-12.8,3.5-5.5,9.2-11.4,9.4-11.6-4.6,9.2-5.5,12.3-5.5,12.3-1.4,4.5-1.7,11.7,4.5,22.8-.3-2.7-.3-6.3.4-10.5,1.2-6.4,3.7-11.2,5.6-14.1-.4,2.1-1.1,8.1,2.1,14.5,2.7,5.5,6.8,8.5,8.6,9.7-1.5-2.4-4.3-7.5-4.6-14.5-.4-11,5.8-18.6,7.4-20.5-1,1.8-5.1,9.2-2.8,18.3,1.3,5,3.9,8.4,5.5,10.2-.6-2.3-1.3-5.9-.9-10.2.4-4.1,1.5-7.4,2.5-9.5-.3,2.8-.7,9.8,3.2,16.8,1.7,3.1,3.8,5.2,5.5,6.7-.9-1.8-2-4.8-2.3-8.6-.4-5.4,1.2-9.6,2.1-11.6-.3,2.2-.8,8,2.3,14.2,3.9,7.6,10.5,10.6,12.4,11.4-1.7-2.6-4.5-7.6-5.5-14.6-1-7,.3-12.7,1.2-15.7-.2,2.1-.3,7.5,2.8,13.2,3.4,6.3,8.7,9.1,10.6,9.9,0,0-1.1-1-4.7-8-3.7-7.3-2-18.5-2-18.5l.7,4.8c.7,4.7,2.7,6.4,7.7,11.3,5,5,4.9,12.2,4.9,12.2,0,0,1.9-4.7-.4-11.5-2.1-6.1-3.9-10.5-4.3-11.4.3.7,1.7,3.3,4.5,6.7,3.4,4,3,9.4,3,9.4l1.1-2.9c1.1-2.7-1.5-7.8-1.7-8.2.2.2,1.5,2.2,4.3,4.6,3,2.5,3.7,8.6,3.7,8.6,0,0,1.8-4.9-2.5-11.6-4.1-6.5-5-13.7-5.1-14.2,0,.2.4,1.5,2.6,4.4,2.3,3.1,2,3,5.3,5.4,3.3,2.4,5.3,10.2,5.3,10.2,0,0-.7-6.5.6-12.2,1.2-5.7-1-11.7-1-11.7l1.5,2.1c1.5,2.1,1.2,3.5,4.1,10.8,2.8,7.1,7.8,8.8,8,8.8,0,0-.2-.2-1.2-1.8-1.2-1.8-1.8-4.3-2.5-9.7-.6-5.2-4-10-4.2-10.3.1.1,1.6,1.7,3.2,3.9,1.7,2.3,2.6,2.7,5.6,5.8,1.4,1.4,3.1,4.2,3.4,11.4.7-2.3,1.4-6.2.8-10.9-.9-6.5-3.9-11-5.5-13.1,0,0,2.7,1.9,5,4.9,2.3,3,4.7,8.5,6.9,10.2,2.2,1.7,6.2,5.6,6.4,5.8,0,0,0-.2-.7-2-.7-2-3.6-5.5-3.6-5.5,0,0,1.8,1.3,3.9,4.5M167.8,188.6c.3-2.2,1.1-5.5,3-9.2,1.7-3.2,3.7-5.4,5.2-6.8-1.4,1.9-3,4.3-4.5,7.1-1.7,3.3-2.9,6.3-3.7,9ZM180.4,182.5c-.9,3.9-1.1,7.3-1.1,9.9-.4-2.1-.9-5.9.2-10.4,1.1-4.5,3.2-7.7,4.5-9.4-1.2,2.5-2.6,5.8-3.5,9.9ZM180,174.7c-2.2,4-5,9-4.7,6,.3-2.8,8.4-11.5,9.4-12.6-.5.6-2.7,3.1-4.6,6.6ZM211.2,160.3c-1.4,1.7-2.4,3.3-3.3,4.8.4-1.3,1.2-3,2.6-4.9,1.8-2.3,3.8-3.7,5.1-4.4-1.4,1.2-2.9,2.6-4.4,4.5Z"/>
  <path class="st54" d="M159.5,333.3l-6-3.9c-.4-.3-.9-.1-1.2.2-.3.4-.1.9.2,1.2l6,3.9c.4.3.9.1,1.2-.2.3-.4.1-.9-.2-1.2"/>
  <polygon class="st61" points="270.6 98 282.4 76.5 281.8 73.6 282.1 73 291.1 77.8 294.3 98 300.9 86.5 300.4 83.7 300.9 83.1 309.6 88.6 309.3 89.1 306.6 89 292.2 112.8 287.1 109.1 283.9 86.2 276.1 100.4 277 103 276.6 103.4 267.9 98.7 268.2 98 270.6 98"/>
  <path class="st61" d="M331.5,108.8c-1.2-2.2-15.7-14.8-15.7-14.8l-.5.4v2.8c0,0-16.2,18.4-16.2,18.4l-2.8-.3-.7.7s13.5,12.7,18.1,13.8c4.6,1.2,9.1,1.2,15.3-4.6,6.3-5.8,3.6-14.4,2.4-16.5M318.3,122.1c-5.1,3-8.7,1-10-.3l-1.3-1.4,14-15.1s4.4,2.3,4.5,5.2c.1,2.8-2.1,8.6-7.2,11.6Z"/>
  <g class="st59">
    <rect class="st22" x="333.1" y="175.9" width="22.5" height="69.3"/>
  </g>
  <path class="st54" d="M162.3,336.6l5-8.7c.5-.9.2-2.2-.7-2.7l-2.8-1.6c-.9-.5-2.2-.2-2.7.7l-5,8.7c-.5.9-.2,2.2.7,2.7l2.8,1.6c.9.5,2.2.2,2.7-.7"/>
  <path class="st61" d="M203.8,351.3l1.5-4.9s-2.3,0-3.4-.1h-1.1c0-.1,2.5-18.5,2.5-18.5l.9-.9v-.4s-10-1.6-10-1.6l-17.7,18.2v3.5l15.2,2.6-.6,4.1c-.2.2-.4.4-.7.6-.5.4-1.1.6-1.5.8,0,.3-.1.7-.2,1l12.6,1.9v-.8c-.3-.3-.8-.6-1.2-1.2-.3-.4-.5-.8-.7-1.1l.4-3.8,3.9.7ZM192.3,344.3l-8.6-1.1,10.4-10.4-1.8,11.5Z"/>
  <path class="st24" d="M315.2,255.9c-.7,1.4-1.4,2.8-2.1,4.2-1.2-2-2.7-4.2-4.7-6.4-3.6-4.1-7.4-6.8-10.2-8.5,2.6.4,7.7,1.7,12.5,5.7,2,1.7,3.5,3.4,4.6,5"/>
  <path class="st57" d="M287.8,280.5c-1.9,3.7-4.5,5.3-4.5,5.3,0,0,2.8-6.4.5-10.9-1.2-2.4-2.1-5.9-2.6-8.6-.5-2.4-.7-4.2-.7-4.2,0,0,1.9,1.2,2.8,4.1l.9,2.9s-.7-6.3-3.2-9.4c-2.5-3.1-2.9-8.5-2.9-8.5,0,0,2,4.5,5.8,9.4.6.8,1.3,1.6,2,2.3,5.1,5.6,3.8,14,1.9,17.7"/>
  <path class="st23" d="M285.2,274.1l-1.3-3.8c-.7-2-1.7-3.2-2.6-4-.5-2.4-.7-4.2-.7-4.2,0,0,1.9,1.2,2.8,4.1l.9,2.9s-.7-6.3-3.2-9.4c-2.5-3.1-2.9-8.5-2.9-8.5,0,0,2,4.5,5.8,9.4-.6,0-1.1.4.2,3,2.3,4.7,1,10.6,1,10.6"/>
  <path class="st50" d="M292.9,270.4s1.4,3.3.4,6.7c-.9,3.4-1.8,4.8-1.8,4.8,0,0,2.8-2.6,3.1-6.1.4-3.5-1.8-5.4-1.8-5.4"/>
  <path class="st54" d="M284.1,320.8c8.3-4.3,19.4-11.2,30.2-22.2,6.9-7,12-14,15.7-19.9,1,.7,2,1.3,3,2-3.9,6.2-9.3,13.4-16.6,20.6-10.9,10.9-22.1,17.9-30.5,22.2-.6-.9-1.2-1.8-1.8-2.7"/>
  <rect class="st54" x="331.4" y="268" width="4.1" height="17.7" transform="translate(-82.2 399.6) rotate(-56.2)"/>
  <path class="st54" d="M271.5,336.6l-5-8.7c-.5-.9-.2-2.2.7-2.7l2.8-1.6c.9-.5,2.2-.2,2.7.7l5,8.7c.5.9.2,2.2-.7,2.7l-2.8,1.6c-.9.5-2.2.2-2.7-.7"/>
  <path class="st54" d="M274.4,322l4.6-3c.8-.5,1.8-.3,2.3.5l1.4,2.2c.5.8.3,1.8-.5,2.3l-4.6,3c-.8.5-1.8.3-2.3-.5l-1.4-2.2c-.5-.8-.3-1.8.5-2.3"/>
  <path class="st54" d="M270.8,327.2l6-3.9c.4-.3.9-.1,1.2.2.3.4.1.9-.2,1.2l-6,3.9c-.4.3-.9.1-1.2-.2-.3-.4-.1-.9.2-1.2"/>
  <path class="st54" d="M274.3,333.3l6-3.9c.4-.3.9-.1,1.2.2.3.4.1.9-.2,1.2l-6,3.9c-.4.3-.9.1-1.2-.2-.3-.4-.1-.9.2-1.2"/>
  <path class="st54" d="M278.7,328.7l6-3.9c.8-.5,1.8-.3,2.3.5l.7,1.1c.5.8.3,1.8-.5,2.3l-6,3.9c-.8.5-1.8.3-2.3-.5l-.7-1.1c-.5-.8-.3-1.8.5-2.3"/>
  <rect class="st54" x="347.5" y="242" width="2.5" height="19.7" transform="translate(-47.1 420.2) rotate(-58.9)"/>
  <rect class="st54" x="328.9" y="270.5" width="4.3" height="3" transform="translate(-79.3 395.4) rotate(-56.2)"/>
  <rect class="st54" x="336.1" y="275.3" width="4.3" height="3" transform="translate(-80.1 403.5) rotate(-56.2)"/>
  <path class="st54" d="M351,272c0,.2-1.5,3.7-4.5,4-.8,0-1.5,0-2.1-.3l-15.1-9.2h0c-.4-.5-.8-1-1.1-1.8-.9-2.9,1.6-5.6,1.8-5.8,0,.6-.2,2.2.9,3.5.2.3.5.5.7.7,0,0,0,0,0,0l14.9,9.1c.3.1.6.3.9.4,1.6.4,3.1-.3,3.6-.6"/>
  <path class="st54" d="M355.8,259.8l-5.7,8.8c-.6.9-1.8,1.2-2.7.6l-13-7.9c-1-.6-1.3-1.8-.8-2.8l4.8-9.2c.2-.4.7-.5,1-.3l7.8,4.6c-1.5,2.7-3.1,5.3-4.6,8,0,0,0,.4.3.7.3.2.6.2.9,0l4.6-8,7.1,4.2c.5.3.6.9.3,1.3"/>
  <polygon class="st54" points="357.7 241.2 354 246.9 356.6 248.6 357.5 247.4 358.9 248.3 356 252.7 358.3 254.1 364 245.3 361.8 243.8 360.2 246.2 358.8 245.3 360.3 242.9 357.7 241.2"/>
  <path class="st61" d="M209.3,331.3l9.7-3.7h5.6v1.2l-.4.4.4,26.1c.2.4.5.8.9,1.3.3.4.7.6,1,.8h.9v.7l-14.7.3v-.9c.5-.2.9-.5,1.4-.8.6-.5,1.1-.9,1.4-1.4,0-7,0-14,0-21l-5.5.5-.8-3.5Z"/>
  <path class="st61" d="M230.4,327.6l.2,8.7,1.4.2c.3-.5.7-1.3,1.5-1.9.5-.5,1-.8,1.4-1.1,3.8-.7,7.6-1.3,11.4-2l-9.4,25.5,10.2-1.7s4.1-19.9,5.6-24.2l1.5-4.3-1.1-3.4s-7.1,2.2-14.1,3.2c-7,1-8.6.9-8.6.9"/>
  <path class="st24" d="M311.9,243.7c3.1,1.1,5.3,2.7,6.8,4-.5,1.3-1,2.6-1.5,3.8-1.3-1.6-3.1-3.4-5.4-5.1-2.6-2-5.1-3.2-7.1-4,1.8,0,4.3.3,7.2,1.3"/>
  <g class="st40">
    <rect class="st5" x="293" y="203.8" width="7.2" height="6.3"/>
  </g>
  <polygon class="st54" points="354.5 239.3 351.1 245.2 348.3 243.6 349.1 242.3 347.6 241.5 345 245.9 342.7 244.6 348 235.5 350.3 236.8 348.9 239.3 350.4 240.1 351.8 237.7 354.5 239.3"/>
  <polygon class="st61" points="94.7 116.9 103 107.8 103.6 108.3 103.6 109.8 110.9 116.9 117.9 109.8 111.1 103.2 108.6 103.2 108 102.7 116.9 94.3 117.5 94.9 117.4 97.2 135.8 114.7 138 114.9 138.4 115.4 129.5 123.5 128.9 123 129 120.8 121.4 113.1 114.6 120.3 122.8 127.4 124.8 127.4 125.2 127.8 116.8 137.2 116.2 136.7 116.3 134 98.1 117.3 95.2 117.2 94.7 116.9"/>
  <polygon class="st61" points="123.6 89.6 133.9 82.5 134.5 83.3 134.1 86.1 148.3 106.2 150.3 106.2 150.8 106.8 140.8 114 140.2 113.4 140.7 111.1 127 90.7 123.9 90.1 123.6 89.6"/>
  <path class="st61" d="M164.7,68.4l2.3,6.9-.7.4s-4.4-3.4-9-1c-4.7,2.4-5.1,7.1-3.6,11.7,1.5,4.6,3.8,8.5,8.2,8.4,4.4-.1,4.6-2,4.6-2l-3.1-7.3-2.8-.6-.4-.8,11.3-4.6.5.9-.7,2,4.5,10.4.9.2v.6s-6,1.7-6,1.7l-.8-1.4s.5,1.6-3,4c-3.5,2.4-10.9,3.6-14.8,1.3-3.9-2.3-8-5.7-7.5-16.3,0,0-.3-5,5-9.5,4.2-3.6,9.7-5.1,15.2-5"/>
  <path class="st24" d="M122,246.4c-2.3,1.7-4.1,3.5-5.4,5.1-.5-1.3-1.1-2.5-1.5-3.8,1.5-1.3,3.8-2.9,6.8-4,2.9-1.1,5.5-1.3,7.2-1.3-2,.8-4.5,2.1-7.1,4"/>
  <path class="st24" d="M125.4,253.7c-2,2.2-3.5,4.4-4.7,6.4-.7-1.4-1.4-2.8-2.1-4.2,1.1-1.5,2.6-3.3,4.6-5,4.8-4,9.9-5.3,12.5-5.7-2.8,1.7-6.6,4.4-10.2,8.5"/>
  <g class="st43">
    <rect class="st4" x="60.9" y="114.7" width="89.1" height="68.6"/>
  </g>
  <path class="st55" d="M64.9,119.4c.2,1.3.6,2.8,1.1,4.5.8,2.3,1.7,4.2,2.6,5.7-.6-.3-1.8-.7-3.3-.5-.9,0-1.6.3-2,.5,0-1.7,0-3.9.5-6.3.3-1.4.7-2.7,1.1-3.8"/>
  <path class="st62" d="M64,133.3c0,1.6,1.3,2.9,2.9,2.9s2.9-1.3,2.9-2.9-1.3-2.9-2.9-2.9-2.9,1.3-2.9,2.9"/>
  <path class="st49" d="M66.9,135.1c1,0,1.8-.8,1.8-1.8s-.8-1.8-1.8-1.8-1.8.8-1.8,1.8.8,1.8,1.8,1.8"/>
  <path class="st57" d="M146,280.5c1.9,3.7,4.5,5.3,4.5,5.3,0,0-2.8-6.4-.5-10.9,1.2-2.4,2.1-5.9,2.6-8.6.5-2.4.7-4.2.7-4.2,0,0-1.9,1.2-2.8,4.1l-.9,2.9s.7-6.3,3.2-9.4c2.5-3.1,2.9-8.5,2.9-8.5,0,0-2,4.5-5.8,9.4-.6.8-1.3,1.6-2,2.3-5.1,5.6-3.8,14-1.9,17.7"/>
  <path class="st23" d="M148.6,274.1l1.3-3.8c.7-2,1.7-3.2,2.6-4,.5-2.4.7-4.2.7-4.2,0,0-1.9,1.2-2.8,4.1l-.9,2.9s.7-6.3,3.2-9.4c2.5-3.1,2.9-8.5,2.9-8.5,0,0-2,4.5-5.8,9.4.6,0,1.1.4-.2,3-2.3,4.7-1,10.6-1,10.6"/>
  <path class="st50" d="M140.9,270.4s-1.4,3.3-.4,6.7c.9,3.4,1.8,4.8,1.8,4.8,0,0-2.8-2.6-3.1-6.1-.4-3.5,1.8-5.4,1.8-5.4"/>
  <path class="st54" d="M149.7,320.8c-8.3-4.3-19.4-11.2-30.2-22.2-6.9-7-12-14-15.7-19.9-1,.7-2,1.3-3,2,3.9,6.2,9.3,13.4,16.6,20.6,10.9,10.9,22.1,17.9,30.5,22.2.6-.9,1.2-1.8,1.8-2.7"/>
  <rect class="st54" x="91.5" y="274.8" width="17.7" height="4.1" transform="translate(-137.2 102.8) rotate(-33.8)"/>
  <path class="st54" d="M159.4,322l-4.6-3c-.8-.5-1.8-.3-2.3.5l-1.4,2.2c-.5.8-.3,1.8.5,2.3l4.6,3c.8.5,1.8.3,2.3-.5l1.4-2.2c.5-.8.3-1.8-.5-2.3"/>
  <path class="st54" d="M155.1,328.7l-6-3.9c-.8-.5-1.8-.3-2.3.5l-.7,1.1c-.5.8-.3,1.8.5,2.3l6,3.9c.8.5,1.8.3,2.3-.5l.7-1.1c.5-.8.3-1.8-.5-2.3"/>
  <rect class="st54" x="75.2" y="250.6" width="19.7" height="2.5" transform="translate(-118 80.2) rotate(-31.1)"/>
  <rect class="st54" x="101.3" y="269.9" width="3" height="4.3" transform="translate(-134.1 103.4) rotate(-33.9)"/>
  <rect class="st54" x="94.1" y="274.7" width="3" height="4.3" transform="translate(-138 100.2) rotate(-33.8)"/>
  <path class="st54" d="M82.8,272c0,.2,1.5,3.7,4.5,4,.8,0,1.5,0,2.1-.3l15.1-9.2h0c.4-.5.8-1,1.1-1.8.9-2.9-1.6-5.6-1.8-5.8,0,.6.2,2.2-.9,3.5-.2.3-.5.5-.7.7,0,0,0,0,0,0l-14.9,9.1c-.3.1-.6.3-.9.4-1.6.4-3.1-.3-3.6-.6"/>
  <path class="st54" d="M78,259.8l5.7,8.8c.6.9,1.8,1.2,2.7.6l13-7.9c1-.6,1.3-1.8.8-2.8l-4.8-9.2c-.2-.4-.7-.5-1-.3l-7.8,4.6c1.5,2.7,3.1,5.3,4.6,8,0,0,0,.4-.3.7-.3.2-.6.2-.9,0l-4.6-8-7.1,4.2c-.5.3-.6.9-.3,1.3"/>
  <polygon class="st54" points="79.3 239.3 82.7 245.2 85.5 243.6 84.7 242.3 86.2 241.5 88.8 245.9 91.1 244.6 85.8 235.5 83.5 236.8 84.9 239.3 83.4 240.1 82 237.7 79.3 239.3"/>
  <polygon class="st54" points="76.1 241.2 79.8 246.9 77.2 248.6 76.4 247.4 75 248.3 77.8 252.7 75.5 254.1 69.8 245.3 72 243.8 73.6 246.2 75 245.3 73.5 242.9 76.1 241.2"/>
  <g class="st41">
    <rect class="st7" x="78.2" y="175.9" width="22.5" height="69.3"/>
  </g>
  <path class="st54" d="M163,327.2l-6-3.9c-.4-.3-.9-.1-1.2.2-.3.4-.1.9.2,1.2l6,3.9c.4.3.9.1,1.2-.2.3-.4.1-.9-.2-1.2"/>
  <path class="st25" d="M251,232.3c-2.2.4-6.3.9-10.8-1-1.5-.6-2.7-1.3-3.7-2,0,.4.2.9.5,1.5.5,1,1.3,1.6,1.8,1.9-1.3,0-3.1-.2-5.2-.9-3.3-1.1-5.4-3.1-6.4-4.2,1,1.4,2.2,3.1,3.7,4.8,1.8,2,3.7,3.5,5.3,4.7-2.5-.7-5.9-1.5-10.1-1.6-4.5,0-8.1.6-10.7,1.3-2.7-.9-7.5-2.1-13.4-1.5-4.1.4-7.4,1.6-9.6,2.6,1.8-1.3,3.9-2.9,6-5,1.3-1.3,2.3-2.6,3.3-3.8-1,1-2.9,2.5-5.6,3.5-2.7,1-5.1,1-6.5.9,1.6-.7,3.6-1.7,5.5-3.4.6-.5,1.1-1,1.5-1.5-2.3,1.1-5.9,2.5-10.3,3-3.1.4-5.8.2-7.9,0,1.9-.4,5-1.3,8.1-3.7,5.4-4.1,6.9-9.9,7.2-11.7-.6,2.9-1.1,5.8-1.7,8.8.6-.1,1.6-.4,2.6-1.2,1.6-1.2,2.2-2.7,2.4-3.3,0,.8-.2,2-.8,3.4-.6,1.4-1.4,2.4-2,2.9,1.3-.7,3.9-2.5,5.8-5.8,2.2-3.9,2.2-7.6,2-9.1.1.2.3.5.5.8.7,1.1,1.8,3,2.3,5.5h0c.3,1.4.5,2.9.4,4.6-.2,3.4-1.4,6-2.2,7.4,1.1-.9,3.4-3.2,4.5-7,.7-2.4.6-4.5.4-5.8,1.5.5,2.3,1.2,2.7,1.7,1.1,1.2,1.9,3,1.9,3.1,0-.1.2-2.6-.4-5.1,0,0,0-.1,0-.2-.3-1.1-.8-2.5-1.8-4.2,1.1,1.3,2.4,2.7,3.9,4.1.6.5,1.2,1,1.8,1.5,3,2.5,6,4.2,8.5,5.4-.5-.9-1.2-2.3-1.6-4-.4-1.8-.4-3.4-.3-4.5.5,1.4,1.3,3.1,2.4,4.8,2.3,3.5,5.1,5.7,7,6.9-.9-1-2.1-2.6-2.9-4.8-.6-1.4-.8-2.8-1-3.8.7,1,1.6,2.1,2.7,3.2,1,1.1,2.1,1.9,3,2.6-.8-1.2-1.9-2.9-2.6-5.2-1-2.9-1-5.5-1-7.1.8,2.6,2.3,6.2,5.2,9.9,5.5,7,12.6,9.6,15.6,10.6"/>
  <path class="st25" d="M253.1,185.5s0,.2-.1.4c-.4,1.8-1.6,8.9,2.8,12.9,5.1,4.6,7.2,5.7,8.2,7.4l1,1.7s-1.9-7.5-5.2-11.2c-3.2-3.7-6.7-11.2-6.7-11.2"/>
  <path class="st25" d="M270.5,188s.4,2.4.4,5.4v2.9s3.4,4,2.5,7.7l-.9,3.7s3.7-4.1,3-8.4l-.6-4.2-4.4-7Z"/>
  <g class="st42">
    <rect class="st12" x="271.7" y="209.4" width="4.3" height="50.6"/>
  </g>
  <path class="st57" d="M275,285c.2-1.8,0-3.4-.3-4.5-.3-1-.5-1.6-.5-1.6l.4-1.9c.4-1.9-1.1-6.1-1.1-6.1,0,0,2.6,2.5,4.1,6,.3.6.5,1.2.7,1.9,1.1,4.3-3.8,10.1-4,10.3,0-.1.4-1,.8-4.2"/>
  <path class="st50" d="M267.9,280.1s.3,5.6-1.6,8.6l-1.9,3s3.8-2.3,4.5-5.3c.7-3-.9-6.2-.9-6.2"/>
  <path class="st57" d="M261.2,282.7c0,.5,0,1-.1,1.5-.6,5.8-5.1,8.9-5.2,9,0,0,1-1.2,1.6-3.7.4-1.6.3-4.1.1-5.6,0-.7-.1-1.2-.1-1.2l1.1-1.9c1.1-1.9,1.2-5.1,1.2-5.1,0,0,1.6,2.2,1.4,7.1"/>
  <path class="st57" d="M247.2,295.2s.9-.9,2-3.6c.8-1.8.2-3.5-.3-5-.3-.8-.7-1.6-.8-2.2-.4-1.8,3.3-7.3,3.3-7.3,0,0-.8,3.4,0,7.7,0,.4.2.9.3,1.4,1.3,4.9-4.4,8.9-4.6,9.1"/>
  <path class="st57" d="M236.9,302.9s0-.1,1.5-2.4c1.5-2.4.6-3.5,0-6.1,0-.2,0-.4,0-.5,0-2.7,3.1-6.7,3.1-6.7,0,0-.3,2.6.6,7.5,0,.1,0,.3,0,.4,1,5.1-5.1,7.8-5.3,7.9"/>
  <path class="st57" d="M228.2,305.1s.2-.3,1.3-2.1c1-1.6,1-3.3.8-4.7h0c0-.4-.2-.8-.2-1.2-.4-1.6,2.3-7.3,2.3-7.3,0,0,.1,2.3.5,6,0,.4,0,.7.1,1.1.5,4.3-4.7,8-4.9,8.1"/>
  <path class="st50" d="M269.7,251.1s0,6.8.9,10.1c.9,3.3,1.4,4.6,1.4,4.6,0,0-2.7-4.5-3.4-6.6l-.7-2.1,1,1.6s-.7-1.9,0-4.8l.7-2.8Z"/>
  <path class="st50" d="M262.5,257.1l.3,3.7s.9,1.9,1,3.8v1.9c0,0,1.1-2.6.5-5.5-.7-2.9-1.8-4-1.8-4"/>
  <path class="st23" d="M276.4,280.2h-.9c-.3-.2-.6,0-.9.3-.3-1-.5-1.6-.5-1.6l.4-1.9c.4-1.9-1.1-6.1-1.1-6.1,0,0,2.6,2.5,4.1,6-.6-.4-1.3-.8-1.5-.5-.4.6.4,3.8.4,3.8"/>
  <path class="st52" d="M251.4,284.8c-.4.5-.7.9-.7,1,0,.2-1.2-1.2-1.2-1.2l-.7,2.1c-.3-.8-.7-1.6-.8-2.2-.4-1.8,3.3-7.3,3.3-7.3,0,0-.8,3.4,0,7.7"/>
  <path class="st23" d="M261.2,282.7c-.9.9-1.8,1.7-1.8,1.7l-.9-1.2-.9.7c0-.7-.1-1.2-.1-1.2l1.1-1.9c1.1-1.9,1.2-5.1,1.2-5.1,0,0,1.6,2.2,1.4,7.1"/>
  <path class="st53" d="M232.4,289.8s.1,2.3.5,6c-1.3.5-2.1,1.5-2.6,2.4,0-.4-.2-.8-.2-1.2-.4-1.6,2.3-7.3,2.3-7.3"/>
  <path class="st56" d="M242.2,294.6c-.5-.3-1.2-.6-2.1-.8-.6,0-1.1,0-1.6,0,0-2.7,3.1-6.7,3.1-6.7,0,0-.3,2.6.6,7.5"/>
  <path class="st50" d="M244.6,274.7s1.4,2.8.7,5.8l-.7,3s2.2-2.9,1.6-5.7c-.7-2.7-1.6-3.2-1.6-3.2"/>
  <path class="st50" d="M220.5,293.1s.7,1.8,0,4.3l-.7,2.6s3.1-3.4,2.1-5c-1-1.6-1.4-1.9-1.4-1.9"/>
  <path class="st57" d="M205.7,305.1s-.2-.3-1.3-2.1c-1-1.6-1-3.3-.8-4.7h0c0-.4.2-.8.2-1.2.4-1.6-2.3-7.3-2.3-7.3,0,0-.1,2.3-.5,6,0,.4,0,.7-.1,1.1-.5,4.3,4.7,8,4.9,8.1"/>
  <path class="st53" d="M201.4,289.8s-.1,2.3-.5,6c1.3.5,2.1,1.5,2.6,2.4,0-.4.2-.8.2-1.2.4-1.6-2.3-7.3-2.3-7.3"/>
  <path class="st50" d="M213.3,293.1s-.7,1.8,0,4.3l.7,2.6s-3.1-3.4-2.1-5c1-1.6,1.4-1.9,1.4-1.9"/>
  <path class="st25" d="M241.3,237.7c1.6,2.4,4.1,6.5,5.3,12.2,1.5,7.1.2,12.9-.7,15.9,1.3-1.8,4.9-7.1,4.8-14.6,0-5.5-2-9.6-3.1-11.5.3.9.7,2.2.8,3.7.1,1,0,2,0,2.7-.5-1-1.1-2.1-2-3.3-1.7-2.4-3.6-4-5.1-5"/>
  <path class="st25" d="M247,234.7c1,.3,3.6,1.1,5.7,3.7,2.6,3.1,2.5,6.6,2.5,7.5,0,.9,0,1.9-.2,3-.3,2.4-1,4.4-1.6,6-.3-2.9-.9-6.2-2.1-9.8-.4-1.3-.9-2.5-1.4-3.7.5.2,1.2.6,1.9,1.4.4.4.6.9.8,1.2,0-1.1-.4-2.7-1.3-4.5-1.4-2.7-3.4-4.1-4.4-4.7"/>
  <path class="st25" d="M242.3,258.1c-.3,1.7-.3,7.1-1,8.8-.8,1.8-6.1,3.7-10-.7-3.9-4.5-3.5-7.3-3.2-8.8.3-1.5,1.6-1.4,3.4-1.8,1.8-.5,3.1-.5,3.8-3.8.7-3.3,1.9-3.7,1.9-3.7,0,0-1.2-3.2-5.2-2.3-4,.9-8,3.5-11.1,3.7-3.1.3-4,.2-4,.2,0,0-.9,0-4-.2-3.1-.3-7.1-2.9-11.1-3.7-4-.9-5.2,2.3-5.2,2.3,0,0,1.2.4,1.9,3.7.7,3.3,1.9,3.4,3.8,3.8,1.8.5,3.1.3,3.4,1.8.3,1.5.7,4.3-3.2,8.8-3.9,4.5-9.2,2.5-10,.7-.8-1.8-.7-7.2-1-8.8-.3-1.7-4.1-8.8,3.3-14.6s20-1.5,20-1.5c0,0,.3.2,1,.4.8.2,1.1.1,1.1.1,0,0,.3,0,1.1-.1.8-.2,1-.4,1-.4,0,0,12.7-4.3,20,1.5,7.4,5.8,3.6,12.9,3.3,14.6"/>
  <path class="st25" d="M234.7,273.5s-1.6,2.1-4.3,2.7c-2.7.7-4.2-2.4-4.2-2.4,0,0,0,.2-.2,1.8-.3,1.7-1.7,2.7-1.7,2.7,0,0,0-.2-.8-2.5-.8-2.2-2.1-3.1-2.1-3.1v.6c0,.6,0,2.7-1.3,3.4-1.4.8-3.2.2-3.2.2,0,0-1.9.5-3.2-.2-1.4-.8-1.3-2.8-1.3-3.4v-.6s-1.3.8-2.1,3.1c-.8,2.2-.8,2.5-.8,2.5,0,0-1.4-1.1-1.7-2.7-.3-1.7-.2-1.8-.2-1.8,0,0-1.5,3.1-4.2,2.4-2.7-.7-4.3-2.7-4.3-2.7,0,0,3.1.7,5-.5,1.9-1.2,6.5-3.9,9-4.3,2.5-.4,3.9-.3,3.9-.3,0,0,1.4-.1,3.9.3,2.5.4,7.1,3.1,9,4.3,1.9,1.2,5,.5,5,.5"/>
  <path class="st25" d="M242.9,209l1,4.3,5,8.3s-1.5-5.3-1.6-7.1v-1.9c-.4-.6-1.1-1.7-2.4-2.6-.8-.5-1.5-.8-2-1"/>
  <path class="st25" d="M251.6,206.8s3.3,5,5.2,9.1c1.9,4,2.1,5.1,2.1,4.9s-.7-6.9-2.5-9.5c-1.8-2.6-4.8-4.5-4.8-4.5"/>
  <path class="st25" d="M261.5,210.6c1.8,2.3,5.5,7.5,6.4,15.2,1.3,10.4-3.2,18.2-4.7,20.5.4-4.1.8-8.1,1.2-12.2-.2,1.6-.6,3.6-1.4,5.9-1.2,3.3-2.9,5.7-4.2,7.3-.5-2.5-1.2-5.3-2-8.1-.7-2.6-1.6-5-2.4-7.2.6.6,1.2,1.3,1.9,2.1.7,1,1.3,1.9,1.7,2.7-.2-1.6-.5-3.4-1-5.4-1.1-4.2-2.8-7.5-4.3-9.9,1.7,1.3,4.8,4.2,6.8,8.8,1.1,2.7,1.5,5.1,1.6,6.8.7-1.8,1.6-4.8,1.7-8.5,0-3.8-.7-6.9-1.4-8.8.4.4,1.1,1.1,1.6,2.1.5,1.1.7,2.1.7,2.7.2-1.6.4-3.6.2-5.9-.3-3.6-1.4-6.4-2.2-8.3"/>
  <path class="st61" d="M214.3,57.6v1l2,1.9-1.2,24.5-2,1.5v.9l21.7.7,2.8-7.7-.7-.7s-2.1,2.4-4.5,2.8c-2.4.4-8,.1-8,.1l1-22,1.9-1.8v-.9c0,0-13-.3-13-.3Z"/>
  <path class="st61" d="M266.5,94.5l-1.6-28.4-10.5-3.8-.3.7,1.1,2.7-15.9,21.2-2,.7v.7s9.5,2.6,9.5,2.6l.2-.8-1.2-2.1,3.1-4.3,8.8,2.6.2,5.4-2.4,1-.3.6,12.3,4,.3-.5-1.3-2.4ZM251.5,80l5.4-7.6.4,9.4-5.8-1.9Z"/>
  <polygon class="st61" points="174.4 63 186.4 60.5 186.6 61.3 185.7 62.5 187.5 72.5 197.3 70.9 195.7 61.5 193.7 60 193.5 59.3 205.7 57.7 205.8 58.5 204.3 60.3 209 85.3 210.6 86.8 210.7 87.4 198.7 88.7 198.5 88 199.9 86.2 198.3 75.5 188.6 77.5 191 88 192.6 89.1 192.7 89.7 180.5 92.4 180.2 91.6 181.9 89.5 176.9 65.4 174.6 63.6 174.4 63"/>
  <path class="st21" d="M240.4,158.6l-.5-.4h0c0-.2,0-.2.1-.2,0,0,.1,0,.1.1l.2.5ZM240,158.2s0,0,0,0h0c0,0,0,0,0,0Z"/>
  <path class="st50" d="M189.2,274.7s-1.4,2.8-.7,5.8l.7,3s-2.2-2.9-1.6-5.7c.7-2.7,1.6-3.2,1.6-3.2"/>
  <g class="st48">
    <rect class="st11" x="157.8" y="209.4" width="4.3" height="50.6"/>
  </g>
  <path class="st57" d="M158.8,285c-.2-1.8,0-3.4.3-4.5.3-1,.5-1.6.5-1.6l-.4-1.9c-.4-1.9,1.1-6.1,1.1-6.1,0,0-2.6,2.5-4.1,6-.3.6-.5,1.2-.7,1.9-1.1,4.3,3.8,10.1,4,10.3,0-.1-.4-1-.8-4.2"/>
  <path class="st50" d="M165.9,280.1s-.3,5.6,1.6,8.6l1.9,3s-3.8-2.3-4.5-5.3c-.7-3,.9-6.2.9-6.2"/>
  <path class="st57" d="M172.6,282.7c0,.5,0,1,.1,1.5.6,5.8,5.1,8.9,5.2,9,0,0-1-1.2-1.6-3.7-.4-1.6-.3-4.1-.1-5.6,0-.7.1-1.2.1-1.2l-1.1-1.9c-1.1-1.9-1.2-5.1-1.2-5.1,0,0-1.6,2.2-1.4,7.1"/>
  <path class="st57" d="M186.7,295.2s-.9-.9-2-3.6c-.8-1.8-.2-3.5.3-5,.3-.8.7-1.6.8-2.2.4-1.8-3.3-7.3-3.3-7.3,0,0,.8,3.4,0,7.7,0,.4-.2.9-.3,1.4-1.3,4.9,4.4,8.9,4.6,9.1"/>
  <path class="st50" d="M164.1,251.1s0,6.8-.9,10.1c-.9,3.3-1.4,4.6-1.4,4.6,0,0,2.7-4.5,3.4-6.6l.7-2.1-1,1.6s.7-1.9,0-4.8l-.7-2.8Z"/>
  <path class="st50" d="M171.3,257.1l-.3,3.7s-.9,1.9-1,3.8v1.9c0,0-1.1-2.6-.5-5.5.7-2.9,1.8-4,1.8-4"/>
  <path class="st23" d="M157.5,280.2h.9c.3-.2.6,0,.9.3.3-1,.5-1.6.5-1.6l-.4-1.9c-.4-1.9,1.1-6.1,1.1-6.1,0,0-2.6,2.5-4.1,6,.6-.4,1.3-.8,1.5-.5.4.6-.4,3.8-.4,3.8"/>
  <path class="st52" d="M182.4,284.8c.4.5.7.9.7,1,0,.2,1.2-1.2,1.2-1.2l.7,2.1c.3-.8.7-1.6.8-2.2.4-1.8-3.3-7.3-3.3-7.3,0,0,.8,3.4,0,7.7"/>
  <path class="st23" d="M172.6,282.7c.9.9,1.8,1.7,1.8,1.7l.9-1.2.9.7c0-.7.1-1.2.1-1.2l-1.1-1.9c-1.1-1.9-1.2-5.1-1.2-5.1,0,0-1.6,2.2-1.4,7.1"/>
  <path class="st25" d="M168.8,216.9s-3.4,7.1-2.1,15c1.2,7.9,1.8,12.6,1.8,14.5v1.8s1.5-3.1,1.4-6.1v-3c-.1,0,.9,9.6,2.8,13.2l1.9,3.6s-2.3-17.2-.8-25c1.5-7.8,6.4-10.7,6.4-10.7,0,0-6.9,3.4-8.5,7-1.7,3.7-1.9,6.9-1.9,6.9,0,0-.6-4.3-1.5-8.4-.9-4.1.6-8.7.6-8.7"/>
  <path class="st25" d="M186.6,238.5c-1.6,1.9-4,5.3-5.2,10.2-1.9,7.4,0,13.4,1,15.8-1.3-1.6-3.4-4.8-4.4-9.3-1.1-4.8-.4-8.7.1-10.7-.4.3-.9.8-1.3,1.4-1.1,1.5-1.3,3.1-1.4,4-.2-.7-1.8-6.6,1.9-11.4,1.8-2.3,4.1-3.4,5.4-3.8-.7.9-1.8,2.4-2.4,4.5-.8,2.4-.7,4.4-.6,5.6.2-.7.9-3,3.1-4.7,1.5-1.1,3.1-1.5,3.8-1.6"/>
  <path class="st57" d="M196.9,302.9s0-.1-1.5-2.4c-1.5-2.4-.6-3.5,0-6.1,0-.2,0-.4,0-.5,0-2.7-3.1-6.7-3.1-6.7,0,0,.3,2.6-.6,7.5,0,.1,0,.3,0,.4-1,5.1,5.1,7.8,5.3,7.9"/>
  <path class="st56" d="M191.7,294.6c.5-.3,1.2-.6,2.1-.8.6,0,1.1,0,1.6,0,0-2.7-3.1-6.7-3.1-6.7,0,0,.3,2.6-.6,7.5"/>
  <g class="st45">
    <rect class="st8" x="80.3" y="143.2" width="78.9" height="33.2"/>
  </g>
  <path class="st13" d="M146.5,187.1l-2.8,3.2s-1.7-.6-11,1.2c-9.3,1.8-15.5,3.8-15.5,3.8,0,0,8.1-5.2,16.1-7,8-1.8,13.2-1.2,13.2-1.2"/>
  <g class="st44">
    <rect class="st10" x="114.8" y="157.4" width="30" height="16.5"/>
  </g>
  <path class="st60" d="M114.2,162.2s-.4-3.3-1.7-3.9c-1.2-.6-13.4-3.9-16.1-5.2-2.7-1.3-3-1.5-3.1-1,0,.4-.2,1.2,0,1.4.2.2,12.7,4.8,15.2,5.5,2.5.7,3.4.8,4.2,1.9.9,1.1,1.4,1.4,1.4,1.4"/>
  <g class="st35">
    <rect class="st9" x="80.3" y="144.1" width="11.2" height="9.1"/>
  </g>
  <path class="st2" d="M117.8,157.5c.2,0,8.2,2.8,18.1,4,10.1,1.2,17,1.3,17,1.3.9-.3,2.1-.8,3.4-1.6,1.2-.8,2.2-1.6,2.9-2.3-.2,0-7.9,2.9-25.2,1.1-5.5-.6-11-1.4-16.2-2.4"/>
  <path class="st24" d="M202,143.2c-1,.2-2.1.3-3.3.3,1.1-.1,2.1-.3,3.3-.3"/>
  <path class="st20" d="M219.9,222.2c-.1,0-1.4-.5-3.8-1.9-1.2-.7-2.8-2.2-4-3.4-.3-1.1-.8-2.5-1.8-4.2,1.1,1.3,2.4,2.7,3.9,4.1.6.5,1.2,1,1.8,1.5,1.8,2.3,3.8,3.8,3.9,3.9"/>
  <g class="st33">
    <rect class="st6" x="127.5" y="199" width="10.1" height="7.3"/>
  </g>
  <g class="st34">
    <rect class="st18" x="133.6" y="203.8" width="7.2" height="6.3"/>
  </g>
  <path class="st20" d="M202.3,212.7c.7,1.1,1.8,3,2.3,5.5h0c-.7,3-2.4,4.8-2.4,4.8,0,0,.3-1.1.6-4.3.2-2-.2-4.4-.6-5.9"/>
  <g class="st32">
    <rect class="st17" x="296.2" y="199" width="10.1" height="7.3"/>
  </g>
  <g class="st29">
    <rect class="st15" x="283.7" y="114.7" width="89.1" height="68.6"/>
  </g>
  <g class="st26">
    <rect class="st14" x="274.6" y="143.2" width="78.9" height="33.2"/>
  </g>
  <path class="st2" d="M316,157.5c-.2,0-8.2,2.8-18.1,4-10.1,1.2-17,1.3-17,1.3-.9-.3-2.1-.8-3.4-1.6-1.2-.8-2.2-1.6-2.9-2.3.2,0,7.9,2.9,25.2,1.1,5.5-.6,11-1.4,16.2-2.4"/>
  <path class="st13" d="M287.3,187.1l2.8,3.2s1.7-.6,11,1.2c9.3,1.8,15.5,3.8,15.5,3.8,0,0-8.1-5.2-16.1-7-8-1.8-13.2-1.2-13.2-1.2"/>
  <g class="st30">
    <rect class="st19" x="289" y="157.4" width="30" height="16.5"/>
  </g>
  <path class="st55" d="M368.9,119.4c-.2,1.3-.6,2.8-1.1,4.5-.8,2.3-1.7,4.2-2.6,5.7.6-.3,1.8-.7,3.3-.5.9,0,1.6.3,2,.5,0-1.7,0-3.9-.5-6.3-.3-1.4-.7-2.7-1.1-3.8"/>
  <path class="st62" d="M369.8,133.3c0,1.6-1.3,2.9-2.9,2.9s-2.9-1.3-2.9-2.9,1.3-2.9,2.9-2.9,2.9,1.3,2.9,2.9"/>
  <path class="st49" d="M366.9,135.1c-1,0-1.8-.8-1.8-1.8s.8-1.8,1.8-1.8,1.8.8,1.8,1.8-.8,1.8-1.8,1.8"/>
  <path class="st60" d="M319.6,162.2s.4-3.3,1.7-3.9c1.2-.6,13.4-3.9,16.1-5.2,2.7-1.3,3-1.5,3.1-1,0,.4.2,1.2,0,1.4-.2.2-12.7,4.8-15.2,5.5-2.5.7-3.4.8-4.2,1.9-.9,1.1-1.4,1.4-1.4,1.4"/>
  <g class="st39">
    <rect class="st16" x="342.3" y="144.1" width="11.2" height="9.1"/>
  </g>
</svg>